<?xml version="1.0" encoding="utf-8"?>
<!-- Generator: Adobe Illustrator 19.2.1, SVG Export Plug-In . SVG Version: 6.00 Build 0)  -->
<!DOCTYPE svg PUBLIC "-//W3C//DTD SVG 1.1//EN" "http://www.w3.org/Graphics/SVG/1.1/DTD/svg11.dtd">
<svg version="1.1" id="Layer_1" xmlns="http://www.w3.org/2000/svg" xmlns:xlink="http://www.w3.org/1999/xlink" x="0px" y="0px"
	 viewBox="0 0 811 474.4" style="enable-background:new 0 0 811 474.4;" xml:space="preserve">
<style type="text/css">
	.st0{fill:#DDDCDC;}
	.st1{fill:#EA2831;}
	.st2{display:none;}
	.st3{fill:#FFFFFF;}
	.st4{filter:url(#Adobe_OpacityMaskFilter);}
	.st5{mask:url(#SVGID_1_);}
	.st6{fill:none;stroke:#EA2831;stroke-width:0.5;stroke-miterlimit:10;}
	.st7{fill:none;stroke:#FFFFFF;stroke-width:4;stroke-linecap:round;stroke-linejoin:round;stroke-miterlimit:10;}
	.st8{fill:none;stroke:#FFFFFF;stroke-width:2;stroke-miterlimit:10;}
	.st9{fill:#BABABA;}
	.st10{fill:none;stroke:#000000;stroke-width:2;stroke-miterlimit:10;}
	.st11{fill:#757274;}
	.st12{fill:#757274;stroke:#757274;stroke-linecap:round;stroke-linejoin:round;stroke-miterlimit:10;}
	.st13{fill:#F9D97C;}
	.st14{fill:none;stroke:#FFFFFF;stroke-width:2;stroke-linecap:round;stroke-linejoin:round;stroke-miterlimit:10;}
	.st15{fill:none;stroke:#FFFFFF;stroke-width:4;stroke-miterlimit:10;}
	.st16{fill:none;stroke:#87767F;stroke-width:2.5;stroke-linejoin:round;stroke-miterlimit:10;}
</style>
<g id="WvZPJo.tif">
	
		<image style="overflow:visible;" width="200" height="235" id="Layer_0_1_" xlink:href="AC4EFB5A1CCBD8E.png"  transform="matrix(1 0 0 1 -234.1411 50.4085)">
	</image>
</g>
<rect class="st0" width="811" height="474.4"/>
<rect x="336.3" y="332.8" class="st1" width="149.4" height="103.5"/>
<g>
	<path class="st1" d="M432.4,212.5l-0.3-0.3l-0.3,0.4c-0.4,0.6-0.9,1.1-1.5,1.6l-0.2,0.1l0,0.4c0,0.1,0,0.2,0,0.3
		c0,3.6-0.9,6.5-2.6,8.5l0,0c-0.1,0.1-0.2,0.2-0.4,0.3l-1.1,0.8l1.5-0.1c1.2,0,2.5,0,3.9,0.1l0.2,0l0.1-0.2c0.6-0.7,0.9-1,1-1.1
		c1.5-1.4,2.4-3.3,2.4-5.2C435.1,215.5,433.4,213.5,432.4,212.5z"/>
	<path class="st1" d="M421.5,200.1l0.9,0.8c0.1,0.1,0.2,0.2,0.3,0.3c0.3,0.3,0.5,0.7,0.7,1.1l0.1,0.1l0.1,0.1
		c0.9,0.5,5.3,3.2,6.3,9.7l0.1,0.9l0.6-0.7c1-1.2,1.5-2.5,1.6-3.9c0.1-2.2-1-4.4-3-6.1c-1.6-1.3-3.8-2.1-6.6-2.2L421.5,200.1z"/>
	<path class="st1" d="M424.3,204.3l-0.6-0.5l-0.1,0.8c-0.3,2.9-3.2,8.1-7.9,10.3c-3.1,1.5-6.7,1.5-10.3-0.2l-1.1-0.5l0.5,1
		c0.4,0.8,0.9,1.6,1.5,2.4c4.9,6.5,13.7,7.6,13.8,7.6c0,0,0,0,0,0l0.1,0c0.1,0,0.5,0.1,1,0.1c0.1,0,0.2,0,0.4,0l0.1,0
		c0.6-0.1,1.1-0.3,1.6-0.4l0.1,0c0.8-0.3,1.5-0.8,1.5-0.8c2.6-1.6,4-4.8,4-9.1C429,209,426.1,205.8,424.3,204.3z"/>
	<path class="st1" d="M418.9,200.5l-0.4-0.1l-0.1,0.4c-0.3,1.3-1.2,4-4.4,7.1c-1.1,1-2.4,1.6-3.8,1.6l-0.2,0
		c-2.4-0.1-4.7-1.6-6.2-2.9l-0.7-0.6l0,0.9c0,1.9,0.2,3.8,0.7,5.5l0,0.2l0.1,0.1c2.4,1.5,4.7,2.2,6.9,2.2c1.5,0,3-0.3,4.4-1
		c4.5-2.2,7.1-7.3,7.3-9.6c0.1-1-0.2-1.8-0.7-2.5C421,201,419.8,200.7,418.9,200.5z"/>
	<path class="st1" d="M406,199.8l0.3,0.7l0.4-0.6c0.8-1,2.2-2.3,4.7-2.3c1.8,0,3.2,1.1,3.9,3l0.2,0.5l0.4-0.3
		c0.6-0.4,1.1-0.9,1.5-1.3l0.1-0.1c0,0,0.1,0,0.1-0.1l0.1,0c0,0,1.6-0.4,3.8-0.4l1.2,0l-0.5-0.7c-1.2-1.5-3.9-4-8.5-4
		c-5.1,0-7.7,2.6-8.6,3.7l-0.2,0.2l0.2,0.2C405.6,198.9,405.8,199.3,406,199.8z"/>
	<path class="st1" d="M411.4,198.8c-2.4,0-3.6,1.4-4.1,2.2l-0.2,0.3l0.3,0.2c0.9,0.7,1.8,1.2,2.8,1.3c0.2,0,0.5,0,0.7,0
		c1,0,2.1-0.3,3.3-0.9l0.3-0.2l-0.1-0.3C413.9,199.7,412.9,198.8,411.4,198.8z"/>
	<path class="st1" d="M403.6,203c-0.1,0.5-0.2,1-0.2,1.5l0,0.2l0.1,0.1c1.1,1.1,3.8,3.5,6.6,3.6l0.2,0c1.1,0,2.1-0.4,3-1.3
		c1.5-1.5,2.7-3,3.4-4.5l0.7-1.4l-1.3,0.9c-2.1,1.4-4,2-5.9,1.7c-2.3-0.3-3.8-1.9-4.5-2.7l-0.2-0.3l-0.3,0.2
		c-0.3,0.2-0.6,0.4-0.8,0.6C403.7,202.1,403.6,202.9,403.6,203z"/>
	<path class="st1" d="M393.1,208.1l0.6-0.3c1.8-0.8,3.4-1.2,4.2-1.4l0.1,0l0.1-0.1c1.7-2.1,3.5-3.3,4.3-3.7l0.1-0.1l0-0.1
		c0.1-0.4,0.4-1.1,0.9-1.5c0.3-0.2,0.6-0.5,1-0.7l0.3-0.2l-0.2-0.3c-0.2-0.3-0.4-0.7-0.6-0.9l-0.1-0.1c-0.7-0.7-1.5-1.2-2.5-1.4
		c-2-0.4-4.3,0.7-6,2.7c-2.3,2.8-2.5,6-2.4,7.6L393.1,208.1z"/>
	<path class="st1" d="M397.9,224.4c-2.6-4.8-3.4-9.3-2.3-13.2c0.2-0.9,0.6-1.7,1-2.5l0.5-0.9l-0.9,0.3c-1.1,0.4-2.1,0.8-3.1,1.3
		c-3.4,2-5.2,4.8-5.2,8.4c0,2.7,0.9,5.3,2.7,7.7c0.1,0.1,0.2,0.2,0.2,0.3l0.2,0.2l0.3-0.1c1.6-0.4,3.2-0.6,4.9-0.6
		c0.5,0,1.1,0,1.7,0.1l0.9,0l-0.6-0.7C398,224.6,398,224.5,397.9,224.4z"/>
	<path class="st1" d="M405.5,218.4c-1.1-1.5-2-3.3-2.6-5.2l0-0.1c-0.7-2.5-1-5.2-0.7-8.1l0.1-1l-0.8,0.6c-1.7,1.3-3.9,3.6-4.8,7
		c-1.1,3.9-0.2,8.4,2.7,13.3c0,0,0.1,0.2,0.2,0.4l0.2,0.4l0.2,0c5.4,0.9,8.4,3.5,9.9,5.5l0.2,0.3l0.3-0.1c0.6-0.3,1.3-0.3,1.9,0
		l0.3,0.2l0.2-0.3c0.9-1.2,2.5-3,5.2-4.4l1-0.5L418,226C414.9,225.3,409.2,223.3,405.5,218.4z"/>
</g>
<g>
	<path d="M445.9,234.1l-0.6-0.7c-0.9-1-2-1.9-3-2.8l-0.4-0.3l-2.2,4L445.9,234.1z"/>
	<path d="M438.3,234.4l2.6-4.8l-0.3-0.2c-0.8-0.5-1.6-1-2.4-1.4l-0.3-0.2l-4.7,6.8L438.3,234.4z"/>
	<path d="M431.6,234.8l5.1-7.4l-0.5-0.2c-1.3-0.5-2.6-0.9-3.9-1.1l-0.2,0l-7.2,9L431.6,234.8z"/>
	<path d="M423.3,235.1l7.4-9.3l-1-0.1c-0.4,0-0.7,0-1.1,0c-1.6,0-3.1,0.1-4.6,0.4l-0.2,0l-4.2,9.1L423.3,235.1z"/>
	<path d="M402,235.9l-3.4-9.2l-0.3,0c-1-0.1-1.9-0.1-2.7-0.1l-0.7,0l2,9.3H402z"/>
	<path d="M395.6,235.9l-1.9-9.2l-0.4,0.1c-2.4,0.4-4.8,1.4-7,2.8l-0.4,0.2l4.7,6.1H395.6z"/>
	<path d="M384.9,230.6l-0.3,0.3c-2,1.6-3.4,3.3-4.3,4.4l-0.5,0.7h9.3L384.9,230.6z"/>
	<path d="M379.8,237.1l0.5,0.7c0.9,1.2,2.4,2.9,4.4,4.5l0.3,0.3l3.7-5.4H379.8z"/>
	<path d="M390.2,237.1l-4.2,6.1l0.4,0.2c1,0.6,2,1.2,3,1.6l0.3,0.1l5.3-8.1H390.2z"/>
	<path d="M396.5,237.1l-5.6,8.5l0.5,0.2c1.5,0.4,3,0.6,4.5,0.7l0.2,0l5.4-9.3H396.5z"/>
	<path d="M397.6,246.4l0.8-0.1c6.5-0.6,9.5-3.8,10.8-5.6l0.1-0.1v-3.5H403L397.6,246.4z"/>
	<path d="M400.7,227l-0.7-0.2l3.4,9h5.9v-2.7c0-0.1,0-0.3,0.1-0.5l0-0.2l-0.1-0.2C408,230.5,405.5,228,400.7,227z"/>
	<path d="M412.1,232.9c-0.1-0.3-0.4-0.5-0.8-0.5c-0.3,0-0.6,0.2-0.7,0.4c-0.1,0.1-0.1,0.3-0.1,0.4V251c0,0.5,0.4,0.8,0.8,0.8
		c0.5,0,0.8-0.4,0.8-0.8v-17.8C412.1,233.1,412.1,233,412.1,232.9L412.1,232.9z"/>
	<path d="M413.4,235.6l4.8-0.2l4.1-8.9l-0.9,0.3c-5.2,1.6-7.3,4.6-8,5.8l-0.1,0.1l0,0.1c0,0.1,0,0.2,0,0.3V235.6z"/>
	<path d="M413.4,236.8v1.6l0.1,0.1c0.7,1.3,2.5,3.6,6.4,5.2l0.8,0.3l-2.3-7.5L413.4,236.8z"/>
	<path d="M419.6,236.5l2.5,7.9l0.2,0.1c1.6,0.4,3.3,0.6,5.2,0.7l0.7,0l-5-8.9L419.6,236.5z"/>
	<path d="M424.6,236.3l5,8.9l0.3,0c2.1-0.1,4.1-0.5,6-1.3l0.5-0.2l-4.8-7.8L424.6,236.3z"/>
	<path d="M433,235.9l4.5,7.4l0.3-0.2c1.3-0.6,2.6-1.4,3.8-2.3l0.3-0.2l-3.7-4.9L433,235.9z"/>
	<path d="M439.8,235.6l3.1,4.2l0.3-0.3c1.6-1.4,2.8-2.7,3.4-3.6l0.6-0.7L439.8,235.6z"/>
</g>
<path class="st2" d="M368.8,14.3c-0.3-0.5-6.6-9.9-18.3-12.5c0,0,0,0,0,0c0,0,0,0,0,0c2.2-2,3.6-4.8,3.6-7.7c0-4.5-2.9-7.5-4.3-8.7
	c0.4-1,0.7-2.1,0.7-3.2c0.1-3.2-1.4-6.4-4.2-8.9c-2-1.7-4.5-2.6-6.9-2.9c0,0,0-0.1,0-0.1c-0.2-0.3-3.9-7.2-12.9-7.2
	c-6.6,0-10.2,3.1-11.7,4.9c-0.9-0.7-2-1.2-3.2-1.4c-3.2-0.6-6.5,0.9-9,4c-3.7,4.6-3.5,9.7-3.3,11.7c-3.3,2.1-6.4,5.6-6.4,11.3
	c0,3.7,1.1,7.1,3.3,10.2c0,0,0.1,0,0.1,0.1c-8.9,3.5-13.6,11.5-13.9,11.9c-0.2,0.4-0.2,0.9,0,1.3c0.3,0.6,8,13.5,22.3,13.5
	c8,0,12.7-2.7,15.5-5.4v8.9c0,1.7,1.4,3,3,3c1.7,0,3-1.4,3-3V22.5c5.5,5.8,14.9,6.3,18.1,6.3c15.7,0,24.1-12.6,24.4-13.2
	C369.1,15.2,369.1,14.7,368.8,14.3z M360.7,9.5c1.5,1.2,2.7,2.3,3.6,3.3l-5.6,0.3L360.7,9.5z M358.7,8l-2.9,5.2l-4.9,0.2l4.9-7.1
	C356.8,6.8,357.8,7.4,358.7,8z M347.8,13.5l-6.8,0.3l7.8-9.9c1.6,0.3,3.2,0.8,4.6,1.3L347.8,13.5z M338.8,4c1.7-0.3,3.5-0.5,5.6-0.5
	c0.5,0,1,0,1.5,0.1L337.7,14l-3.6,0.2L338.8,4z M351.8-6c0,2.3-1,4.4-2.8,6c-0.2,0.2-0.7,0.7-1.2,1.4c-1.1-0.1-2.2-0.2-3.4-0.2
	c-0.5,0-1.1,0-1.6,0c0.4-0.3,0.6-0.4,0.6-0.4c1.8-2.1,3.3-5.4,3.3-10.7c0-0.2,0-0.4,0-0.6c0.8-0.6,1.4-1.3,2-2.1
	C349.8-11.5,351.8-9.2,351.8-6z M344.8-25c2.3,1.9,3.5,4.5,3.4,7c-0.1,1.6-0.7,3.1-1.8,4.5c-1.3-8.1-6.8-11.5-8-12.1
	c-0.2-0.5-0.5-1-1-1.5c-0.1-0.1-0.3-0.3-0.4-0.4C339.6-27.5,342.6-26.9,344.8-25z M338.9-22.6c2.1,1.7,5.5,5.6,5.5,12.6
	c0,5.1-1.6,8.8-4.6,10.7c0,0-0.8,0.5-1.8,0.9c-0.7,0.1-1.4,0.3-2,0.5c-0.9,0-1.6-0.1-1.6-0.1c0,0,0,0-0.1,0c-0.1,0-10.7-1.3-16.5-9
	c-0.7-0.9-1.2-1.8-1.7-2.8c2.5,1.2,4.8,1.6,6.8,1.6c2.4,0,4.5-0.6,6.1-1.4C334.9-12.5,338.5-18.9,338.9-22.6z M336.5-23
	c-0.2,2.6-3.3,8.7-8.6,11.2c-4.1,2-8.5,1.5-13.2-1.4c-0.6-2-0.8-4.2-0.8-6.5c1.8,1.5,4.7,3.5,7.8,3.6c2,0.1,3.8-0.6,5.2-2
	c4-3.8,5.2-7.2,5.5-9c1,0.2,2.4,0.6,3.2,1.5C336.4-25,336.6-24.1,336.5-23z M326.5-34.7c5.4,0,8.5,2.9,9.9,4.7c-2.8,0-5,0.4-5.2,0.4
	c0,0-0.1,0-0.1,0c0,0-0.1,0-0.1,0c0,0,0,0-0.1,0c0,0,0,0,0,0c-0.1,0-0.1,0.1-0.2,0.1c0,0-0.1,0-0.1,0c-0.6,0.6-1.3,1.2-1.9,1.6
	c-1-2.5-2.8-4-5.2-4c-3.2,0-5.1,1.6-6.1,2.9c-0.2-0.6-0.5-1.2-0.9-1.8C317.5-31.8,320.5-34.7,326.5-34.7z M326.7-26.3
	c-1.6,0.8-3.1,1.2-4.6,1c-1.3-0.2-2.4-0.8-3.2-1.5c0.5-0.9,1.9-2.4,4.5-2.4C325.3-29.3,326.2-27.8,326.7-26.3z M315.1-25.9
	c0.3-0.2,0.6-0.5,0.9-0.7c0.9,1.2,2.9,3.1,5.8,3.5c0.4,0.1,0.8,0.1,1.2,0.1c2.1,0,4.2-0.8,6.4-2.3c-0.7,1.4-1.9,3.3-4,5.3
	c-1,1-2.2,1.4-3.5,1.4c-3.3-0.1-6.6-3.2-7.7-4.2c0.1-0.6,0.1-1.2,0.3-1.8C314.4-24.8,314.7-25.5,315.1-25.9z M304.5-28.1
	c1.9-2.4,4.5-3.5,6.8-3.1c1.1,0.2,2.1,0.7,2.8,1.6c0,0,0,0,0,0c0.3,0.3,0.5,0.7,0.7,1.1c-0.4,0.3-0.9,0.6-1.3,1
	c-0.7,0.6-1.1,1.5-1.3,2c-1,0.6-3.3,2.1-5.3,4.7c-0.9,0.2-3,0.7-5.3,1.8C301.5-21.2,301.8-24.8,304.5-28.1z M298.4,2.5
	c-2.1-2.8-3.1-5.8-3.1-9.1c0-4.2,2-7.5,6.1-9.8c1.3-0.7,2.6-1.2,3.7-1.6c-0.5,1-0.9,2-1.2,3.2c-1.4,5-0.4,10.5,2.8,16.5
	c0.1,0.1,0.2,0.3,0.3,0.4c-0.7,0-1.4-0.1-2.1-0.1c-2.2,0-4.2,0.3-6.1,0.8C298.7,2.7,298.6,2.6,298.4,2.5z M311.3,14.9h-5.2L304,4.6
	c0.3,0,0.6,0,0.9,0c0.9,0,1.8,0.1,2.7,0.1L311.3,14.9z M301.5,4.8l2.1,10.1h-5.2l-5.2-6.8C295.5,6.6,298.3,5.4,301.5,4.8z
	 M291.1,9.6l4.1,5.3h-9.2C287,13.5,288.8,11.5,291.1,9.6z M285.9,17.4h8.9l-3.7,5.4C288.8,20.9,287,18.8,285.9,17.4z M293.2,24.2
	l4.7-6.8h4.6l-5.7,8.7C295.5,25.6,294.3,24.9,293.2,24.2z M304.6,27.8c-1.9,0-3.7-0.3-5.3-0.8l6.3-9.6h5.1L304.6,27.8z M320.3,21.1
	c-1.6,2.4-5.3,5.9-12.7,6.6l6-10.2h6.8V21.1z M320.4,11.4c-0.1,0.2-0.1,0.4-0.1,0.7v2.8H314l-3.7-9.8C316,6.3,318.9,9.2,320.4,11.4
	C320.4,11.4,320.4,11.4,320.4,11.4z M323.8,18.6v15.2c0,0.3-0.2,0.5-0.5,0.5c-0.3,0-0.5-0.2-0.5-0.5V21.4v-9.3c0-0.1,0-0.2,0.1-0.3
	c0,0,0,0,0,0c0.1-0.2,0.3-0.3,0.5-0.3c0.2,0,0.4,0.1,0.5,0.3c0,0,0,0,0,0c0,0.1,0,0.1,0,0.2V18.6z M324.7,9.4
	c-0.4-0.2-0.9-0.4-1.4-0.4c-0.5,0-0.9,0.1-1.3,0.3c-1.8-2.4-5.5-5.8-12.3-6.9c-0.2-0.4-0.3-0.7-0.3-0.7c-3.4-5.8-4.6-11.2-3.3-15.8
	c1.1-4,3.8-6.7,5.7-8.2c-0.4,3.7-0.1,7.1,0.8,10.1c0,0.1,0,0.1,0.1,0.2c0.7,2.4,1.8,4.5,3.3,6.5c4.6,6.1,11.6,8.5,15.4,9.4
	C327.9,5.6,325.9,7.8,324.7,9.4z M326.3,11.6c0.9-1.7,3.5-5.1,9.4-6.9l-4.4,9.5l-5,0.2v-2.4C326.3,11.9,326.3,11.8,326.3,11.6z
	 M326.3,18.3V17l5.1-0.2l2.4,7.7C329.3,22.6,327.1,19.7,326.3,18.3z M336.8,25.4l-2.8-8.8l3.5-0.2l5.5,9.8
	C340.7,26.2,338.6,25.9,336.8,25.4z M345.9,26.2l-5.5-9.9l7.4-0.3l5.3,8.7C350.9,25.5,348.5,26.1,345.9,26.2z M355.4,23.8l-4.8-7.8
	l5.3-0.2l4,5.4C358.6,22,357.1,22.9,355.4,23.8z M361.9,19.5l-2.9-3.9l7.1-0.3C365.3,16.2,363.9,17.8,361.9,19.5z"/>
<rect x="396.1" y="281.9" class="st3" width="29.7" height="38.6"/>
<path class="st3" d="M422.5,263.6c0,0,0-13.1-11.6-13.1s-11.6,13.1-11.6,13.1v18.3h23.1V263.6z"/>
<defs>
	<filter id="Adobe_OpacityMaskFilter" filterUnits="userSpaceOnUse" x="383.1" y="242.5" width="58.2" height="58.2">
		
			<feColorMatrix  type="matrix" values="-1 0 0 0 1  0 -1 0 0 1  0 0 -1 0 1  0 0 0 1 0" color-interpolation-filters="sRGB" result="source"/>
	</filter>
</defs>
<mask maskUnits="userSpaceOnUse" x="383.1" y="242.5" width="58.2" height="58.2" id="SVGID_1_">
	<g class="st4">
		<rect x="399.4" y="263.6" width="23.1" height="18.3"/>
	</g>
</mask>
<g class="st5">
	<line class="st6" x1="383.3" y1="273" x2="413.6" y2="242.7"/>
	<line class="st6" x1="385" y1="274.7" x2="415.4" y2="244.4"/>
	<line class="st6" x1="386.8" y1="276.4" x2="417.1" y2="246.1"/>
	<line class="st6" x1="388.5" y1="278.1" x2="418.8" y2="247.8"/>
	<line class="st6" x1="390.2" y1="279.8" x2="420.5" y2="249.5"/>
	<line class="st6" x1="391.9" y1="281.6" x2="422.2" y2="251.2"/>
	<line class="st6" x1="393.6" y1="283.3" x2="424" y2="253"/>
	<line class="st6" x1="395.4" y1="285" x2="425.7" y2="254.7"/>
	<line class="st6" x1="397.1" y1="286.7" x2="427.4" y2="256.4"/>
	<line class="st6" x1="398.8" y1="288.4" x2="429.1" y2="258.1"/>
	<line class="st6" x1="400.5" y1="290.2" x2="430.8" y2="259.8"/>
	<line class="st6" x1="402.2" y1="291.9" x2="432.5" y2="261.6"/>
	<line class="st6" x1="404" y1="293.6" x2="434.3" y2="263.3"/>
	<line class="st6" x1="405.7" y1="295.3" x2="436" y2="265"/>
	<line class="st6" x1="407.4" y1="297" x2="437.7" y2="266.7"/>
	<line class="st6" x1="409.1" y1="298.8" x2="439.4" y2="268.4"/>
	<line class="st6" x1="410.8" y1="300.5" x2="441.1" y2="270.2"/>
</g>
<polygon class="st1" points="411,298.3 336.3,332.8 485.7,332.8 "/>
<g id="wiwyJU.tif">
	
		<image style="overflow:visible;" width="415" height="382" id="Layer_0_2_" xlink:href="AC4EFB5A1CCBD92.png"  transform="matrix(0.4988 0 0 0.4988 -226 306.139)">
	</image>
</g>
<polygon class="st7" points="411,298.3 336.3,332.8 485.7,332.8 "/>
<g>
	<path class="st8" d="M432.9,331.5c-3-9.3-11.7-16-21.9-16c-10.3,0-18.9,6.7-21.9,16"/>
</g>
<g>
	<path d="M421.5,332c-1.4-4.4-5.6-7.7-10.5-7.7c-4.9,0-9.1,3.2-10.5,7.7H421.5z"/>
</g>
<g>
	<path class="st8" d="M421.5,332c-1.4-4.4-5.6-7.7-10.5-7.7c-4.9,0-9.1,3.2-10.5,7.7"/>
</g>
<circle cx="381.9" cy="323.5" r="4.7"/>
<circle cx="440.1" cy="323.5" r="4.7"/>
<circle class="st8" cx="381.9" cy="323.5" r="4.7"/>
<circle class="st8" cx="440.1" cy="323.5" r="4.7"/>
<g>
	<path d="M358.7,349.6c-2,0-3.7,1.7-3.7,3.7v15.8h7.4v-15.8C362.4,351.3,360.8,349.6,358.7,349.6z"/>
	<path d="M376.2,349.6c-2,0-3.7,1.7-3.7,3.7v15.8h7.4v-15.8C379.9,351.3,378.2,349.6,376.2,349.6z"/>
	<path d="M393.7,349.6c-2,0-3.7,1.7-3.7,3.7v15.8h7.4v-15.8C397.4,351.3,395.7,349.6,393.7,349.6z"/>
	<path d="M411.2,349.6c-2,0-3.7,1.7-3.7,3.7v15.8h7.4v-15.8C414.9,351.3,413.2,349.6,411.2,349.6z"/>
	<path d="M428.6,349.6c-2,0-3.7,1.7-3.7,3.7v15.8h7.4v-15.8C432.3,351.3,430.7,349.6,428.6,349.6z"/>
	<path d="M446.1,349.6c-2,0-3.7,1.7-3.7,3.7v15.8h7.4v-15.8C449.8,351.3,448.2,349.6,446.1,349.6z"/>
	<path d="M463.6,349.6c-2,0-3.7,1.7-3.7,3.7v15.8h7.4v-15.8C467.3,351.3,465.7,349.6,463.6,349.6z"/>
</g>
<g>
	<path d="M358.7,379.2c-2,0-3.7,1.7-3.7,3.7v15.8h7.4v-15.8C362.4,380.8,360.8,379.2,358.7,379.2z"/>
	<path d="M376.2,379.2c-2,0-3.7,1.7-3.7,3.7v15.8h7.4v-15.8C379.9,380.8,378.2,379.2,376.2,379.2z"/>
	<path d="M393.7,379.2c-2,0-3.7,1.7-3.7,3.7v15.8h7.4v-15.8C397.4,380.8,395.7,379.2,393.7,379.2z"/>
	<path d="M411.2,379.2c-2,0-3.7,1.7-3.7,3.7v15.8h7.4v-15.8C414.9,380.8,413.2,379.2,411.2,379.2z"/>
	<path d="M428.6,379.2c-2,0-3.7,1.7-3.7,3.7v15.8h7.4v-15.8C432.3,380.8,430.7,379.2,428.6,379.2z"/>
	<path d="M446.1,379.2c-2,0-3.7,1.7-3.7,3.7v15.8h7.4v-15.8C449.8,380.8,448.2,379.2,446.1,379.2z"/>
	<path d="M463.6,379.2c-2,0-3.7,1.7-3.7,3.7v15.8h7.4v-15.8C467.3,380.8,465.7,379.2,463.6,379.2z"/>
</g>
<g>
	<path d="M358.7,411.2c-2,0-3.7,1.7-3.7,3.7v15.8h7.4v-15.8C362.4,412.9,360.8,411.2,358.7,411.2z"/>
	<path d="M376.2,411.2c-2,0-3.7,1.7-3.7,3.7v15.8h7.4v-15.8C379.9,412.9,378.2,411.2,376.2,411.2z"/>
	<path d="M393.7,411.2c-2,0-3.7,1.7-3.7,3.7v15.8h7.4v-15.8C397.4,412.9,395.7,411.2,393.7,411.2z"/>
	<path d="M411.2,411.2c-2,0-3.7,1.7-3.7,3.7v15.8h7.4v-15.8C414.9,412.9,413.2,411.2,411.2,411.2z"/>
	<path d="M428.6,411.2c-2,0-3.7,1.7-3.7,3.7v15.8h7.4v-15.8C432.3,412.9,430.7,411.2,428.6,411.2z"/>
	<path d="M446.1,411.2c-2,0-3.7,1.7-3.7,3.7v15.8h7.4v-15.8C449.8,412.9,448.2,411.2,446.1,411.2z"/>
	<path d="M463.6,411.2c-2,0-3.7,1.7-3.7,3.7v15.8h7.4v-15.8C467.3,412.9,465.7,411.2,463.6,411.2z"/>
</g>
<g>
	<path class="st8" d="M358.7,349.6c-2,0-3.7,1.7-3.7,3.7v15.8h7.4v-15.8C362.4,351.3,360.8,349.6,358.7,349.6z"/>
	<path class="st8" d="M376.2,349.6c-2,0-3.7,1.7-3.7,3.7v15.8h7.4v-15.8C379.9,351.3,378.2,349.6,376.2,349.6z"/>
	<path class="st8" d="M393.7,349.6c-2,0-3.7,1.7-3.7,3.7v15.8h7.4v-15.8C397.4,351.3,395.7,349.6,393.7,349.6z"/>
	<path class="st8" d="M411.2,349.6c-2,0-3.7,1.7-3.7,3.7v15.8h7.4v-15.8C414.9,351.3,413.2,349.6,411.2,349.6z"/>
	<path class="st8" d="M428.6,349.6c-2,0-3.7,1.7-3.7,3.7v15.8h7.4v-15.8C432.3,351.3,430.7,349.6,428.6,349.6z"/>
	<path class="st8" d="M446.1,349.6c-2,0-3.7,1.7-3.7,3.7v15.8h7.4v-15.8C449.8,351.3,448.2,349.6,446.1,349.6z"/>
	<path class="st8" d="M463.6,349.6c-2,0-3.7,1.7-3.7,3.7v15.8h7.4v-15.8C467.3,351.3,465.7,349.6,463.6,349.6z"/>
</g>
<g>
	<path class="st8" d="M358.7,379.2c-2,0-3.7,1.7-3.7,3.7v15.8h7.4v-15.8C362.4,380.8,360.8,379.2,358.7,379.2z"/>
	<path class="st8" d="M376.2,379.2c-2,0-3.7,1.7-3.7,3.7v15.8h7.4v-15.8C379.9,380.8,378.2,379.2,376.2,379.2z"/>
	<path class="st8" d="M393.7,379.2c-2,0-3.7,1.7-3.7,3.7v15.8h7.4v-15.8C397.4,380.8,395.7,379.2,393.7,379.2z"/>
	<path class="st8" d="M411.2,379.2c-2,0-3.7,1.7-3.7,3.7v15.8h7.4v-15.8C414.9,380.8,413.2,379.2,411.2,379.2z"/>
	<path class="st8" d="M428.6,379.2c-2,0-3.7,1.7-3.7,3.7v15.8h7.4v-15.8C432.3,380.8,430.7,379.2,428.6,379.2z"/>
	<path class="st8" d="M446.1,379.2c-2,0-3.7,1.7-3.7,3.7v15.8h7.4v-15.8C449.8,380.8,448.2,379.2,446.1,379.2z"/>
	<path class="st8" d="M463.6,379.2c-2,0-3.7,1.7-3.7,3.7v15.8h7.4v-15.8C467.3,380.8,465.7,379.2,463.6,379.2z"/>
</g>
<g>
	<path class="st8" d="M358.7,411.2c-2,0-3.7,1.7-3.7,3.7v15.8h7.4v-15.8C362.4,412.9,360.8,411.2,358.7,411.2z"/>
	<path class="st8" d="M376.2,411.2c-2,0-3.7,1.7-3.7,3.7v15.8h7.4v-15.8C379.9,412.9,378.2,411.2,376.2,411.2z"/>
	<path class="st8" d="M393.7,411.2c-2,0-3.7,1.7-3.7,3.7v15.8h7.4v-15.8C397.4,412.9,395.7,411.2,393.7,411.2z"/>
	<path class="st8" d="M411.2,411.2c-2,0-3.7,1.7-3.7,3.7v15.8h7.4v-15.8C414.9,412.9,413.2,411.2,411.2,411.2z"/>
	<path class="st8" d="M428.6,411.2c-2,0-3.7,1.7-3.7,3.7v15.8h7.4v-15.8C432.3,412.9,430.7,411.2,428.6,411.2z"/>
	<path class="st8" d="M446.1,411.2c-2,0-3.7,1.7-3.7,3.7v15.8h7.4v-15.8C449.8,412.9,448.2,411.2,446.1,411.2z"/>
	<path class="st8" d="M463.6,411.2c-2,0-3.7,1.7-3.7,3.7v15.8h7.4v-15.8C467.3,412.9,465.7,411.2,463.6,411.2z"/>
</g>
<path d="M411.2,268c-1.6,0-2.9,1.3-2.9,2.9V281h5.8v-10.1C414,269.3,412.8,268,411.2,268z"/>
<path class="st9" d="M411.2,286.6c-1.6,0-2.9,1.3-2.9,2.9v5.4h5.8v-5.4C414,287.9,412.8,286.6,411.2,286.6z"/>
<line class="st7" x1="336.3" y1="374.7" x2="485.7" y2="374.7"/>
<line class="st7" x1="336.3" y1="406.8" x2="485.7" y2="406.8"/>
<line class="st10" x1="399.4" y1="263.6" x2="422.5" y2="263.6"/>
<line class="st10" x1="396.1" y1="281.9" x2="425.8" y2="281.9"/>
<rect y="459.5" class="st11" width="811" height="20"/>
<polygon class="st12" points="556.7,352.9 545.6,358.6 545.6,436.3 556.7,436.3 574.4,436.3 574.4,356.7 "/>
<rect x="531.9" y="387.9" class="st12" width="13.7" height="48.5"/>
<rect x="574.4" y="396.9" class="st12" width="8.9" height="39.4"/>
<rect x="523" y="409" class="st12" width="8.9" height="27.4"/>
<rect x="583.3" y="405.3" class="st12" width="8.9" height="31"/>
<path class="st11" d="M605.3,431c5.8,0,10.6,2.3,11.9,5.3h8.4c1.3-3.1,6.2-5.3,11.9-5.3c5.7,0,10.5,2.2,11.9,5.2v-10.8h-57.3v10.9
	h1.2C594.7,433.3,599.6,431,605.3,431z"/>
<rect y="438.3" class="st9" width="811" height="21.2"/>
<line class="st8" x1="407.5" y1="332.8" x2="407.5" y2="325"/>
<line class="st8" x1="414.6" y1="332.8" x2="414.6" y2="325"/>
<g>
	<g>
		<path class="st3" d="M323.9,296.6h-47.7c-2.9,0-5.3-2.4-5.3-5.3c0-2.9,2.4-5.3,5.3-5.3h47.7c2.9,0,5.3,2.4,5.3,5.3
			C329.3,294.2,326.9,296.6,323.9,296.6z"/>
	</g>
	<g>
		<path class="st3" d="M315.8,280.8h-19.7c-2.9,0-5.3-2.4-5.3-5.3c0-2.9,2.4-5.3,5.3-5.3h19.7c2.9,0,5.3,2.4,5.3,5.3
			C321.2,278.4,318.8,280.8,315.8,280.8z"/>
	</g>
	<path class="st3" d="M304.7,283.4c0-1.4-1.1-2.5-2.5-2.5h11.4c-1.4,0-2.5,1.1-2.5,2.5c0,1.4,1.1,2.5,2.5,2.5h-11.4
		C303.5,285.9,304.7,284.8,304.7,283.4z"/>
</g>
<g>
	<g>
		<path class="st3" d="M563.4,256.8h-47.7c-2.9,0-5.3-2.4-5.3-5.3c0-2.9,2.4-5.3,5.3-5.3h47.7c2.9,0,5.3,2.4,5.3,5.3
			C568.8,254.4,566.4,256.8,563.4,256.8z"/>
	</g>
	<g>
		<path class="st3" d="M543.7,241.1H524c-2.9,0-5.3-2.4-5.3-5.3c0-2.9,2.4-5.3,5.3-5.3h19.7c2.9,0,5.3,2.4,5.3,5.3
			C549.1,238.7,546.7,241.1,543.7,241.1z"/>
	</g>
	<g>
		<path class="st3" d="M565.7,261.9h-59.9c-2.9,0-5.3,2.4-5.3,5.3c0,2.9,2.4,5.3,5.3,5.3h59.9c2.9,0,5.3-2.4,5.3-5.3
			C571,264.3,568.6,261.9,565.7,261.9z"/>
	</g>
	<path class="st3" d="M548,259.4c0-1.4-1.1-2.5-2.5-2.5h11.4c-1.4,0-2.5,1.1-2.5,2.5c0,1.4,1.1,2.5,2.5,2.5h-11.4
		C546.9,261.9,548,260.8,548,259.4z"/>
	<path class="st3" d="M530.7,243.6c0-1.4-1.1-2.5-2.5-2.5h11.4c-1.4,0-2.5,1.1-2.5,2.5c0,1.4,1.1,2.5,2.5,2.5h-11.4
		C529.5,246.1,530.7,245,530.7,243.6z"/>
</g>
<g>
	<g>
		<path class="st3" d="M224.8,236.3h35.4c2.9,0,5.3-2.4,5.3-5.3c0-2.9-2.4-5.3-5.3-5.3h-35.4c-2.9,0-5.3,2.4-5.3,5.3
			C219.5,233.9,221.9,236.3,224.8,236.3z"/>
	</g>
	<g>
		<path class="st3" d="M210.5,252h57.7c2.9,0,5.3-2.4,5.3-5.3c0-2.9-2.4-5.3-5.3-5.3h-57.7c-2.9,0-5.3,2.4-5.3,5.3
			C205.1,249.6,207.5,252,210.5,252z"/>
	</g>
	<path class="st3" d="M249.5,238.8c0-1.4-1.1-2.5-2.5-2.5h11.4c-1.4,0-2.5,1.1-2.5,2.5c0,1.4,1.1,2.5,2.5,2.5h-11.4
		C248.3,241.3,249.5,240.2,249.5,238.8z"/>
	<path class="st3" d="M236.1,223.1c0-1.4-1.1-2.5-2.5-2.5H245c-1.4,0-2.5,1.1-2.5,2.5c0,1.4,1.1,2.5,2.5,2.5h-11.4
		C235,225.6,236.1,224.5,236.1,223.1z"/>
	<g>
		<path class="st3" d="M229.4,220.5h19.7c2.9,0,5.3-2.4,5.3-5.3c0-2.9-2.4-5.3-5.3-5.3h-19.7c-2.9,0-5.3,2.4-5.3,5.3
			C224.1,218.1,226.5,220.5,229.4,220.5z"/>
	</g>
</g>
<g id="WgpAPn.tif">
	
		<image style="overflow:visible;" width="640" height="480" id="Layer_0_3_" xlink:href="AC4EFB5A1CCBD95.png"  transform="matrix(0.3234 0 0 0.3234 -225.9883 -126.6931)">
	</image>
</g>
<rect x="174.6" y="384.2" class="st1" width="144.6" height="52.2"/>
<rect x="174.6" y="384.2" class="st8" width="144.6" height="52.2"/>
<polygon class="st3" points="319.4,384.2 174.4,384.2 174.4,388.9 208.5,388.9 208.5,387 285.3,387 286.2,388.9 319.4,388.9 "/>
<rect x="206.7" y="411.5" class="st8" width="80.5" height="24.8"/>
<rect x="223.1" y="369.6" class="st3" width="47.7" height="12.3"/>
<polygon class="st1" points="223.1,369.6 270.8,369.6 246.9,359.8 "/>
<rect x="223.1" y="369.6" class="st8" width="47.7" height="12.3"/>
<rect x="243.5" y="337.5" class="st3" width="7" height="11.2"/>
<path class="st13" d="M229.3,369.6h35.3c0,0,0.6-22.9-17.7-22.9C228.6,346.8,229.3,369.6,229.3,369.6z"/>
<path class="st8" d="M229.3,369.6h35.3c0,0,0.6-22.9-17.7-22.9C228.6,346.8,229.3,369.6,229.3,369.6z"/>
<polygon class="st1" points="223.1,369.6 270.8,369.6 246.9,359.8 "/>
<polygon class="st14" points="223.1,369.6 270.8,369.6 246.9,359.8 "/>
<path class="st13" d="M250.4,337.4c0,0,0-4-3.5-4c-3.5,0-3.5,4-3.5,4H250.4z"/>
<g>
	<path d="M214.4,414.9c-1.3,0-2.3,1-2.3,2.3v19.1h4.6v-19.1C216.7,415.9,215.6,414.9,214.4,414.9z"/>
	<path d="M225.2,414.9c-1.3,0-2.3,1-2.3,2.3v19.1h4.6v-19.1C227.5,415.9,226.5,414.9,225.2,414.9z"/>
	<path d="M236.1,414.9c-1.3,0-2.3,1-2.3,2.3v19.1h4.6v-19.1C238.4,415.9,237.3,414.9,236.1,414.9z"/>
	<path d="M246.9,414.9c-1.3,0-2.3,1-2.3,2.3v19.1h4.6v-19.1C249.2,415.9,248.2,414.9,246.9,414.9z"/>
	<path d="M257.8,414.9c-1.3,0-2.3,1-2.3,2.3v19.1h4.6v-19.1C260.1,415.9,259.1,414.9,257.8,414.9z"/>
	<path d="M268.7,414.9c-1.3,0-2.3,1-2.3,2.3v19.1h4.6v-19.1C271,415.9,269.9,414.9,268.7,414.9z"/>
	<path d="M279.5,414.9c-1.3,0-2.3,1-2.3,2.3v19.1h4.6v-19.1C281.8,415.9,280.8,414.9,279.5,414.9z"/>
</g>
<g>
	<path class="st8" d="M214.4,414.9c-1.3,0-2.3,1-2.3,2.3v19.1h4.6v-19.1C216.7,415.9,215.6,414.9,214.4,414.9z"/>
	<path class="st8" d="M225.2,414.9c-1.3,0-2.3,1-2.3,2.3v19.1h4.6v-19.1C227.5,415.9,226.5,414.9,225.2,414.9z"/>
	<path class="st8" d="M236.1,414.9c-1.3,0-2.3,1-2.3,2.3v19.1h4.6v-19.1C238.4,415.9,237.3,414.9,236.1,414.9z"/>
	<path class="st8" d="M246.9,414.9c-1.3,0-2.3,1-2.3,2.3v19.1h4.6v-19.1C249.2,415.9,248.2,414.9,246.9,414.9z"/>
	<path class="st8" d="M257.8,414.9c-1.3,0-2.3,1-2.3,2.3v19.1h4.6v-19.1C260.1,415.9,259.1,414.9,257.8,414.9z"/>
	<path class="st8" d="M268.7,414.9c-1.3,0-2.3,1-2.3,2.3v19.1h4.6v-19.1C271,415.9,269.9,414.9,268.7,414.9z"/>
	<path class="st8" d="M279.5,414.9c-1.3,0-2.3,1-2.3,2.3v19.1h4.6v-19.1C281.8,415.9,280.8,414.9,279.5,414.9z"/>
</g>
<rect x="206.7" y="382.2" class="st3" width="80.5" height="4.8"/>
<line class="st15" x1="210.2" y1="387" x2="210.2" y2="411.5"/>
<line class="st15" x1="219.5" y1="387" x2="219.5" y2="411.5"/>
<line class="st15" x1="228.8" y1="387" x2="228.8" y2="411.5"/>
<line class="st15" x1="238.1" y1="387" x2="238.1" y2="411.5"/>
<line class="st15" x1="247.4" y1="387" x2="247.4" y2="411.5"/>
<line class="st15" x1="256.7" y1="387" x2="256.7" y2="411.5"/>
<line class="st15" x1="266" y1="387" x2="266" y2="411.5"/>
<line class="st15" x1="275.3" y1="387" x2="275.3" y2="411.5"/>
<line class="st15" x1="284.6" y1="387" x2="284.6" y2="411.5"/>
<path class="st16" d="M343.3-193.2c-11.6,0-17.4,5-19.4,9.1c0.1,0.2,0.1,0.4,0.1,0.6v6.5c2.2,4.1,7.9,8.9,19.3,8.9
	c15.2,0,23.4-12.6,23.4-12.6S358.5-193.2,343.3-193.2z"/>
<line class="st16" x1="282.5" y1="-179.4" x2="320.6" y2="-179.4"/>
<g>
	<path class="st16" d="M322.2-160c-1,0-1.8-0.8-1.8-1.8v-21.7c0-1,0.8-1.8,1.8-1.8s1.8,0.8,1.8,1.8v21.7
		C324-160.8,323.2-160,322.2-160z"/>
</g>
<line class="st16" x1="311.9" y1="-179.7" x2="307.3" y2="-192"/>
<line class="st16" x1="304" y1="-179.7" x2="301.4" y2="-192.2"/>
<line class="st16" x1="296.4" y1="-179.7" x2="290.3" y2="-187.6"/>
<line class="st16" x1="296.4" y1="-179.7" x2="290.3" y2="-170.8"/>
<line class="st16" x1="304" y1="-179.7" x2="296.3" y2="-168"/>
<line class="st16" x1="311.9" y1="-179.7" x2="304.3" y2="-166.7"/>
<line class="st16" x1="366.6" y1="-181.7" x2="323.9" y2="-179.7"/>
<line class="st16" x1="331.2" y1="-180.4" x2="337.1" y2="-192.9"/>
<line class="st16" x1="337.3" y1="-180.3" x2="347.4" y2="-193"/>
<line class="st16" x1="347.4" y1="-180.8" x2="354.4" y2="-190.9"/>
<line class="st16" x1="355.5" y1="-181.1" x2="359.5" y2="-188.3"/>
<line class="st16" x1="355.5" y1="-181.1" x2="360.3" y2="-174.6"/>
<line class="st16" x1="347.4" y1="-180.8" x2="353.7" y2="-170.4"/>
<line class="st16" x1="337.3" y1="-180.3" x2="344.1" y2="-168.1"/>
<line class="st16" x1="331.2" y1="-180.4" x2="334.7" y2="-169.2"/>
<path class="st16" d="M320.5-183.5c0-0.3,0.1-0.6,0.2-0.9c-2.3-3.9-7.5-7.9-16.9-7.9c-13.8,0-21.2,12.9-21.2,12.9
	s7.5,12.9,21.2,12.9c9.2,0,14.3-3.8,16.7-7.6V-183.5z"/>
<path d="M302,394.2c-2,0-3.7,1.7-3.7,3.7v15.8h7.4v-15.8C305.7,395.9,304.1,394.2,302,394.2z"/>
<path class="st8" d="M302,394.2c-2,0-3.7,1.7-3.7,3.7v15.8h7.4v-15.8C305.7,395.9,304.1,394.2,302,394.2z"/>
<path d="M192.7,394.2c2,0,3.7,1.7,3.7,3.7v15.8H189v-15.8C189,395.9,190.7,394.2,192.7,394.2z"/>
<path class="st8" d="M192.7,394.2c2,0,3.7,1.7,3.7,3.7v15.8H189v-15.8C189,395.9,190.7,394.2,192.7,394.2z"/>
<g>
	<rect x="260.3" y="371.7" class="st1" width="6.1" height="8.3"/>
	<rect x="252.1" y="371.7" class="st1" width="6.1" height="8.3"/>
	<rect x="243.9" y="371.7" class="st1" width="6.1" height="8.3"/>
	<rect x="235.7" y="371.7" class="st1" width="6.1" height="8.3"/>
	<rect x="227.5" y="371.7" class="st1" width="6.1" height="8.3"/>
</g>
<rect x="261.5" y="372.9" class="st3" width="3.7" height="5.8"/>
<rect x="253.3" y="372.9" class="st3" width="3.7" height="5.8"/>
<rect x="245.1" y="372.9" class="st3" width="3.7" height="5.8"/>
<rect x="236.9" y="372.9" class="st3" width="3.7" height="5.8"/>
<rect x="228.7" y="372.9" class="st3" width="3.7" height="5.8"/>
<line class="st8" x1="0" y1="443.3" x2="811" y2="443.3"/>
<line class="st8" x1="811" y1="459.3" x2="0" y2="459.3"/>
<rect x="174.6" y="441.7" class="st3" width="146.2" height="3.3"/>
<rect x="206.7" y="437.8" class="st3" width="80.5" height="5.1"/>
<g>
	<g>
		<path class="st3" d="M739.7,284.5H692c-2.9,0-5.3-2.4-5.3-5.3c0-2.9,2.4-5.3,5.3-5.3h47.7c2.9,0,5.3,2.4,5.3,5.3
			C745,282.1,742.6,284.5,739.7,284.5z"/>
	</g>
	<g>
		<path class="st3" d="M731.6,268.8h-19.7c-2.9,0-5.3-2.4-5.3-5.3c0-2.9,2.4-5.3,5.3-5.3h19.7c2.9,0,5.3,2.4,5.3,5.3
			C736.9,266.4,734.5,268.8,731.6,268.8z"/>
	</g>
	<path class="st3" d="M720.4,271.3c0-1.4-1.1-2.5-2.5-2.5h11.4c-1.4,0-2.5,1.1-2.5,2.5c0,1.4,1.1,2.5,2.5,2.5h-11.4
		C719.2,273.8,720.4,272.7,720.4,271.3z"/>
</g>
<g>
	<g>
		<path class="st3" d="M640.5,224.2h35.4c2.9,0,5.3-2.4,5.3-5.3c0-2.9-2.4-5.3-5.3-5.3h-35.4c-2.9,0-5.3,2.4-5.3,5.3
			C635.2,221.8,637.6,224.2,640.5,224.2z"/>
	</g>
	<g>
		<path class="st3" d="M626.2,240h57.7c2.9,0,5.3-2.4,5.3-5.3c0-2.9-2.4-5.3-5.3-5.3h-57.7c-2.9,0-5.3,2.4-5.3,5.3
			C620.8,237.6,623.2,240,626.2,240z"/>
	</g>
	<path class="st3" d="M665.2,226.7c0-1.4-1.1-2.5-2.5-2.5h11.4c-1.4,0-2.5,1.1-2.5,2.5c0,1.4,1.1,2.5,2.5,2.5h-11.4
		C664.1,229.3,665.2,228.1,665.2,226.7z"/>
	<path class="st3" d="M651.8,211c0-1.4-1.1-2.5-2.5-2.5h11.4c-1.4,0-2.5,1.1-2.5,2.5c0,1.4,1.1,2.5,2.5,2.5h-11.4
		C650.7,213.5,651.8,212.4,651.8,211z"/>
	<g>
		<path class="st3" d="M645.2,208.5h19.7c2.9,0,5.3-2.4,5.3-5.3c0-2.9-2.4-5.3-5.3-5.3h-19.7c-2.9,0-5.3,2.4-5.3,5.3
			C639.8,206.1,642.2,208.5,645.2,208.5z"/>
	</g>
</g>
<g>
	<g>
		<path class="st3" d="M118.4,267.2H70.8c-2.9,0-5.3-2.4-5.3-5.3c0-2.9,2.4-5.3,5.3-5.3h47.7c2.9,0,5.3,2.4,5.3,5.3
			C123.8,264.8,121.4,267.2,118.4,267.2z"/>
	</g>
	<g>
		<path class="st3" d="M98.8,251.5H79c-2.9,0-5.3-2.4-5.3-5.3c0-2.9,2.4-5.3,5.3-5.3h19.7c2.9,0,5.3,2.4,5.3,5.3
			C104.1,249.1,101.7,251.5,98.8,251.5z"/>
	</g>
	<g>
		<path class="st3" d="M120.7,272.3H60.8c-2.9,0-5.3,2.4-5.3,5.3c0,2.9,2.4,5.3,5.3,5.3h59.9c2.9,0,5.3-2.4,5.3-5.3
			C126,274.7,123.6,272.3,120.7,272.3z"/>
	</g>
	<path class="st3" d="M103,269.8c0-1.4-1.1-2.5-2.5-2.5h11.4c-1.4,0-2.5,1.1-2.5,2.5c0,1.4,1.1,2.5,2.5,2.5h-11.4
		C101.9,272.3,103,271.2,103,269.8z"/>
	<path class="st3" d="M85.7,254c0-1.4-1.1-2.5-2.5-2.5h11.4c-1.4,0-2.5,1.1-2.5,2.5c0,1.4,1.1,2.5,2.5,2.5H83.1
		C84.5,256.5,85.7,255.4,85.7,254z"/>
</g>
<path class="st11" d="M637.5,431c5.8,0,10.6,2.3,11.9,5.3h8.4c1.3-3.1,6.2-5.3,11.9-5.3c5.7,0,10.5,2.2,11.9,5.2v-10.8h-57.3v10.9
	h1.2C626.9,433.2,631.8,431,637.5,431z"/>
<path class="st11" d="M669.8,431c5.8,0,10.6,2.3,11.9,5.3h8.4c1.3-3.1,6.2-5.3,11.9-5.3c5.7,0,10.5,2.2,11.9,5.2v-10.8h-57.3v10.9
	h1.2C659.2,433.2,664.1,431,669.8,431z"/>
<path class="st11" d="M702.3,431c5.8,0,10.6,2.3,11.9,5.3h8.4c1.3-3.1,6.2-5.3,11.9-5.3c5.7,0,10.5,2.2,11.9,5.2v-10.8h-57.3v10.9
	h1.2C691.7,433.3,696.6,431,702.3,431z"/>
<path class="st11" d="M734.8,431c5.8,0,10.6,2.3,11.9,5.3h8.4c1.3-3.1,6.2-5.3,11.9-5.3c5.7,0,10.5,2.2,11.9,5.2v-10.8h-57.3v10.9
	h1.2C724.2,433.2,729.1,431,734.8,431z"/>
<path class="st11" d="M766.8,431c5.8,0,10.6,2.3,11.9,5.3h8.4c1.3-3.1,6.2-5.3,11.9-5.3c5.7,0,10.5,2.2,11.9,5.2v-10.8h-57.3v10.9
	h1.2C756.2,433.2,761.1,431,766.8,431z"/>
</svg>
