<?xml version="1.0" encoding="utf-8"?>
<!-- Generator: Adobe Illustrator 23.0.2, SVG Export Plug-In . SVG Version: 6.00 Build 0)  -->
<svg version="1.1" id="Layer_1" xmlns="http://www.w3.org/2000/svg" xmlns:xlink="http://www.w3.org/1999/xlink" x="0px" y="0px"
	 viewBox="0 0 1192.7 450.4" style="enable-background:new 0 0 1192.7 450.4;" xml:space="preserve">
<style type="text/css">
	.st0{fill:#DDDCDC;}
	.st1{fill:#EA2831;}
	.st2{display:none;}
	.st3{fill:#FFFFFF;}
	.st4{fill:none;stroke:#FFFFFF;stroke-width:4;stroke-linecap:round;stroke-linejoin:round;stroke-miterlimit:10;}
	.st5{fill:none;stroke:#FFFFFF;stroke-width:2;stroke-miterlimit:10;}
	.st6{fill:#BABABA;}
	.st7{fill:none;stroke:#000000;stroke-width:2;stroke-miterlimit:10;}
	.st8{fill:#757274;}
	.st9{fill:#757274;stroke:#757274;stroke-linecap:round;stroke-linejoin:round;stroke-miterlimit:10;}
	.st10{fill:#F9D97C;}
	.st11{fill:none;stroke:#FFFFFF;stroke-width:2;stroke-linecap:round;stroke-linejoin:round;stroke-miterlimit:10;}
	.st12{fill:none;stroke:#FFFFFF;stroke-width:4;stroke-miterlimit:10;}
</style>
<rect class="st0" width="1192.7" height="450.4"/>
<rect x="718" y="308.8" class="st1" width="149.4" height="103.5"/>
<g>
	<path class="st1" d="M814.1,188.5l-0.3-0.3l-0.3,0.4c-0.4,0.6-0.9,1.1-1.5,1.6l-0.2,0.1v0.4c0,0.1,0,0.2,0,0.3
		c0,3.6-0.9,6.5-2.6,8.5l0,0c-0.1,0.1-0.2,0.2-0.4,0.3l-1.1,0.8l1.5-0.1c1.2,0,2.5,0,3.9,0.1h0.2l0.1-0.2c0.6-0.7,0.9-1,1-1.1
		c1.5-1.4,2.4-3.3,2.4-5.2C816.8,191.5,815.1,189.5,814.1,188.5z"/>
	<path class="st1" d="M803.2,176.1l0.9,0.8c0.1,0.1,0.2,0.2,0.3,0.3c0.3,0.3,0.5,0.7,0.7,1.1l0.1,0.1l0.1,0.1
		c0.9,0.5,5.3,3.2,6.3,9.7l0.1,0.9l0.6-0.7c1-1.2,1.5-2.5,1.6-3.9c0.1-2.2-1-4.4-3-6.1c-1.6-1.3-3.8-2.1-6.6-2.2L803.2,176.1z"/>
	<path class="st1" d="M806,180.3l-0.6-0.5l-0.1,0.8c-0.3,2.9-3.2,8.1-7.9,10.3c-3.1,1.5-6.7,1.5-10.3-0.2l-1.1-0.5l0.5,1
		c0.4,0.8,0.9,1.6,1.5,2.4c4.9,6.5,13.7,7.6,13.8,7.6l0,0h0.1c0.1,0,0.5,0.1,1,0.1c0.1,0,0.2,0,0.4,0h0.1c0.6-0.1,1.1-0.3,1.6-0.4
		h0.1c0.8-0.3,1.5-0.8,1.5-0.8c2.6-1.6,4-4.8,4-9.1C810.7,185,807.8,181.8,806,180.3z"/>
	<path class="st1" d="M800.6,176.5l-0.4-0.1l-0.1,0.4c-0.3,1.3-1.2,4-4.4,7.1c-1.1,1-2.4,1.6-3.8,1.6h-0.2c-2.4-0.1-4.7-1.6-6.2-2.9
		l-0.7-0.6v0.9c0,1.9,0.2,3.8,0.7,5.5v0.2l0.1,0.1c2.4,1.5,4.7,2.2,6.9,2.2c1.5,0,3-0.3,4.4-1c4.5-2.2,7.1-7.3,7.3-9.6
		c0.1-1-0.2-1.8-0.7-2.5C802.7,177,801.5,176.7,800.6,176.5z"/>
	<path class="st1" d="M787.7,175.8l0.3,0.7l0.4-0.6c0.8-1,2.2-2.3,4.7-2.3c1.8,0,3.2,1.1,3.9,3l0.2,0.5l0.4-0.3
		c0.6-0.4,1.1-0.9,1.5-1.3l0.1-0.1c0,0,0.1,0,0.1-0.1h0.1c0,0,1.6-0.4,3.8-0.4h1.2l-0.5-0.7c-1.2-1.5-3.9-4-8.5-4
		c-5.1,0-7.7,2.6-8.6,3.7l-0.2,0.2l0.2,0.2C787.3,174.9,787.5,175.3,787.7,175.8z"/>
	<path class="st1" d="M793.1,174.8c-2.4,0-3.6,1.4-4.1,2.2l-0.2,0.3l0.3,0.2c0.9,0.7,1.8,1.2,2.8,1.3c0.2,0,0.5,0,0.7,0
		c1,0,2.1-0.3,3.3-0.9l0.3-0.2l-0.1-0.3C795.6,175.7,794.6,174.8,793.1,174.8z"/>
	<path class="st1" d="M785.3,179c-0.1,0.5-0.2,1-0.2,1.5v0.2l0.1,0.1c1.1,1.1,3.8,3.5,6.6,3.6h0.2c1.1,0,2.1-0.4,3-1.3
		c1.5-1.5,2.7-3,3.4-4.5l0.7-1.4l-1.3,0.9c-2.1,1.4-4,2-5.9,1.7c-2.3-0.3-3.8-1.9-4.5-2.7l-0.2-0.3l-0.3,0.2
		c-0.3,0.2-0.6,0.4-0.8,0.6C785.4,178.1,785.3,178.9,785.3,179z"/>
	<path class="st1" d="M774.8,184.1l0.6-0.3c1.8-0.8,3.4-1.2,4.2-1.4h0.1l0.1-0.1c1.7-2.1,3.5-3.3,4.3-3.7l0.1-0.1v-0.1
		c0.1-0.4,0.4-1.1,0.9-1.5c0.3-0.2,0.6-0.5,1-0.7l0.3-0.2l-0.2-0.3c-0.2-0.3-0.4-0.7-0.6-0.9l-0.1-0.1c-0.7-0.7-1.5-1.2-2.5-1.4
		c-2-0.4-4.3,0.7-6,2.7c-2.3,2.8-2.5,6-2.4,7.6L774.8,184.1z"/>
	<path class="st1" d="M779.6,200.4c-2.6-4.8-3.4-9.3-2.3-13.2c0.2-0.9,0.6-1.7,1-2.5l0.5-0.9l-0.9,0.3c-1.1,0.4-2.1,0.8-3.1,1.3
		c-3.4,2-5.2,4.8-5.2,8.4c0,2.7,0.9,5.3,2.7,7.7c0.1,0.1,0.2,0.2,0.2,0.3l0.2,0.2l0.3-0.1c1.6-0.4,3.2-0.6,4.9-0.6
		c0.5,0,1.1,0,1.7,0.1h0.9l-0.6-0.7C779.7,200.6,779.7,200.5,779.6,200.4z"/>
	<path class="st1" d="M787.2,194.4c-1.1-1.5-2-3.3-2.6-5.2v-0.1c-0.7-2.5-1-5.2-0.7-8.1l0.1-1l-0.8,0.6c-1.7,1.3-3.9,3.6-4.8,7
		c-1.1,3.9-0.2,8.4,2.7,13.3c0,0,0.1,0.2,0.2,0.4l0.2,0.4h0.2c5.4,0.9,8.4,3.5,9.9,5.5l0.2,0.3l0.3-0.1c0.6-0.3,1.3-0.3,1.9,0
		l0.3,0.2l0.2-0.3c0.9-1.2,2.5-3,5.2-4.4l1-0.5l-1-0.4C796.6,201.3,790.9,199.3,787.2,194.4z"/>
</g>
<g>
	<path d="M827.6,210.1l-0.6-0.7c-0.9-1-2-1.9-3-2.8l-0.4-0.3l-2.2,4L827.6,210.1z"/>
	<path d="M820,210.4l2.6-4.8l-0.3-0.2c-0.8-0.5-1.6-1-2.4-1.4l-0.3-0.2l-4.7,6.8L820,210.4z"/>
	<path d="M813.3,210.8l5.1-7.4l-0.5-0.2c-1.3-0.5-2.6-0.9-3.9-1.1h-0.2l-7.2,9L813.3,210.8z"/>
	<path d="M805,211.1l7.4-9.3l-1-0.1c-0.4,0-0.7,0-1.1,0c-1.6,0-3.1,0.1-4.6,0.4h-0.2l-4.2,9.1L805,211.1z"/>
	<path d="M783.7,211.9l-3.4-9.2H780c-1-0.1-1.9-0.1-2.7-0.1h-0.7l2,9.3H783.7z"/>
	<path d="M777.3,211.9l-1.9-9.2l-0.4,0.1c-2.4,0.4-4.8,1.4-7,2.8l-0.4,0.2l4.7,6.1L777.3,211.9L777.3,211.9z"/>
	<path d="M766.6,206.6l-0.3,0.3c-2,1.6-3.4,3.3-4.3,4.4l-0.5,0.7h9.3L766.6,206.6z"/>
	<path d="M761.5,213.1l0.5,0.7c0.9,1.2,2.4,2.9,4.4,4.5l0.3,0.3l3.7-5.4h-8.9V213.1z"/>
	<path d="M771.9,213.1l-4.2,6.1l0.4,0.2c1,0.6,2,1.2,3,1.6l0.3,0.1l5.3-8.1L771.9,213.1L771.9,213.1z"/>
	<path d="M778.2,213.1l-5.6,8.5l0.5,0.2c1.5,0.4,3,0.6,4.5,0.7h0.2l5.4-9.3L778.2,213.1L778.2,213.1z"/>
	<path d="M779.3,222.4l0.8-0.1c6.5-0.6,9.5-3.8,10.8-5.6l0.1-0.1v-3.5h-6.3L779.3,222.4z"/>
	<path d="M782.4,203l-0.7-0.2l3.4,9h5.9v-2.7c0-0.1,0-0.3,0.1-0.5v-0.2l-0.1-0.2C789.7,206.5,787.2,204,782.4,203z"/>
	<path d="M793.8,208.9c-0.1-0.3-0.4-0.5-0.8-0.5c-0.3,0-0.6,0.2-0.7,0.4c-0.1,0.1-0.1,0.3-0.1,0.4V227c0,0.5,0.4,0.8,0.8,0.8
		c0.5,0,0.8-0.4,0.8-0.8v-17.8C793.8,209.1,793.8,209,793.8,208.9L793.8,208.9z"/>
	<path d="M795.1,211.6l4.8-0.2l4.1-8.9l-0.9,0.3c-5.2,1.6-7.3,4.6-8,5.8l-0.1,0.1v0.1c0,0.1,0,0.2,0,0.3v2.5H795.1z"/>
	<path d="M795.1,212.8v1.6l0.1,0.1c0.7,1.3,2.5,3.6,6.4,5.2l0.8,0.3l-2.3-7.5L795.1,212.8z"/>
	<path d="M801.3,212.5l2.5,7.9l0.2,0.1c1.6,0.4,3.3,0.6,5.2,0.7h0.7l-5-8.9L801.3,212.5z"/>
	<path d="M806.3,212.3l5,8.9h0.3c2.1-0.1,4.1-0.5,6-1.3l0.5-0.2l-4.8-7.8L806.3,212.3z"/>
	<path d="M814.7,211.9l4.5,7.4l0.3-0.2c1.3-0.6,2.6-1.4,3.8-2.3l0.3-0.2l-3.7-4.9L814.7,211.9z"/>
	<path d="M821.5,211.6l3.1,4.2l0.3-0.3c1.6-1.4,2.8-2.7,3.4-3.6l0.6-0.7L821.5,211.6z"/>
</g>
<path class="st2" d="M750.5-9.7c-0.3-0.5-6.6-9.9-18.3-12.5l0,0l0,0c2.2-2,3.6-4.8,3.6-7.7c0-4.5-2.9-7.5-4.3-8.7
	c0.4-1,0.7-2.1,0.7-3.2c0.1-3.2-1.4-6.4-4.2-8.9c-2-1.7-4.5-2.6-6.9-2.9v-0.1c-0.2-0.3-3.9-7.2-12.9-7.2c-6.6,0-10.2,3.1-11.7,4.9
	c-0.9-0.7-2-1.2-3.2-1.4c-3.2-0.6-6.5,0.9-9,4c-3.7,4.6-3.5,9.7-3.3,11.7c-3.3,2.1-6.4,5.6-6.4,11.3c0,3.7,1.1,7.1,3.3,10.2
	c0,0,0.1,0,0.1,0.1c-8.9,3.5-13.6,11.5-13.9,11.9c-0.2,0.4-0.2,0.9,0,1.3c0.3,0.6,8,13.5,22.3,13.5c8,0,12.7-2.7,15.5-5.4v8.9
	c0,1.7,1.4,3,3,3c1.7,0,3-1.4,3-3V-1.5c5.5,5.8,14.9,6.3,18.1,6.3c15.7,0,24.1-12.6,24.4-13.2C750.8-8.8,750.8-9.3,750.5-9.7z
	 M742.4-14.5c1.5,1.2,2.7,2.3,3.6,3.3l-5.6,0.3L742.4-14.5z M740.4-16l-2.9,5.2l-4.9,0.2l4.9-7.1C738.5-17.2,739.5-16.6,740.4-16z
	 M729.5-10.5l-6.8,0.3l7.8-9.9c1.6,0.3,3.2,0.8,4.6,1.3L729.5-10.5z M720.5-20c1.7-0.3,3.5-0.5,5.6-0.5c0.5,0,1,0,1.5,0.1L719.4-10
	l-3.6,0.2L720.5-20z M733.5-30c0,2.3-1,4.4-2.8,6c-0.2,0.2-0.7,0.7-1.2,1.4c-1.1-0.1-2.2-0.2-3.4-0.2c-0.5,0-1.1,0-1.6,0
	c0.4-0.3,0.6-0.4,0.6-0.4c1.8-2.1,3.3-5.4,3.3-10.7c0-0.2,0-0.4,0-0.6c0.8-0.6,1.4-1.3,2-2.1C731.5-35.5,733.5-33.2,733.5-30z
	 M726.5-49c2.3,1.9,3.5,4.5,3.4,7c-0.1,1.6-0.7,3.1-1.8,4.5c-1.3-8.1-6.8-11.5-8-12.1c-0.2-0.5-0.5-1-1-1.5
	c-0.1-0.1-0.3-0.3-0.4-0.4C721.3-51.5,724.3-50.9,726.5-49z M720.6-46.6c2.1,1.7,5.5,5.6,5.5,12.6c0,5.1-1.6,8.8-4.6,10.7
	c0,0-0.8,0.5-1.8,0.9c-0.7,0.1-1.4,0.3-2,0.5c-0.9,0-1.6-0.1-1.6-0.1s0,0-0.1,0c-0.1,0-10.7-1.3-16.5-9c-0.7-0.9-1.2-1.8-1.7-2.8
	c2.5,1.2,4.8,1.6,6.8,1.6c2.4,0,4.5-0.6,6.1-1.4C716.6-36.5,720.2-42.9,720.6-46.6z M718.2-47c-0.2,2.6-3.3,8.7-8.6,11.2
	c-4.1,2-8.5,1.5-13.2-1.4c-0.6-2-0.8-4.2-0.8-6.5c1.8,1.5,4.7,3.5,7.8,3.6c2,0.1,3.8-0.6,5.2-2c4-3.8,5.2-7.2,5.5-9
	c1,0.2,2.4,0.6,3.2,1.5C718.1-49,718.3-48.1,718.2-47z M708.2-58.7c5.4,0,8.5,2.9,9.9,4.7c-2.8,0-5,0.4-5.2,0.4h-0.1h-0.1
	c0,0,0,0-0.1,0l0,0c-0.1,0-0.1,0.1-0.2,0.1h-0.1c-0.6,0.6-1.3,1.2-1.9,1.6c-1-2.5-2.8-4-5.2-4c-3.2,0-5.1,1.6-6.1,2.9
	c-0.2-0.6-0.5-1.2-0.9-1.8C699.2-55.8,702.2-58.7,708.2-58.7z M708.4-50.3c-1.6,0.8-3.1,1.2-4.6,1c-1.3-0.2-2.4-0.8-3.2-1.5
	c0.5-0.9,1.9-2.4,4.5-2.4C707-53.3,707.9-51.8,708.4-50.3z M696.8-49.9c0.3-0.2,0.6-0.5,0.9-0.7c0.9,1.2,2.9,3.1,5.8,3.5
	c0.4,0.1,0.8,0.1,1.2,0.1c2.1,0,4.2-0.8,6.4-2.3c-0.7,1.4-1.9,3.3-4,5.3c-1,1-2.2,1.4-3.5,1.4c-3.3-0.1-6.6-3.2-7.7-4.2
	c0.1-0.6,0.1-1.2,0.3-1.8C696.1-48.8,696.4-49.5,696.8-49.9z M686.2-52.1c1.9-2.4,4.5-3.5,6.8-3.1c1.1,0.2,2.1,0.7,2.8,1.6l0,0
	c0.3,0.3,0.5,0.7,0.7,1.1c-0.4,0.3-0.9,0.6-1.3,1c-0.7,0.6-1.1,1.5-1.3,2c-1,0.6-3.3,2.1-5.3,4.7c-0.9,0.2-3,0.7-5.3,1.8
	C683.2-45.2,683.5-48.8,686.2-52.1z M680.1-21.5c-2.1-2.8-3.1-5.8-3.1-9.1c0-4.2,2-7.5,6.1-9.8c1.3-0.7,2.6-1.2,3.7-1.6
	c-0.5,1-0.9,2-1.2,3.2c-1.4,5-0.4,10.5,2.8,16.5c0.1,0.1,0.2,0.3,0.3,0.4c-0.7,0-1.4-0.1-2.1-0.1c-2.2,0-4.2,0.3-6.1,0.8
	C680.4-21.3,680.3-21.4,680.1-21.5z M693-9.1h-5.2l-2.1-10.3c0.3,0,0.6,0,0.9,0c0.9,0,1.8,0.1,2.7,0.1L693-9.1z M683.2-19.2
	l2.1,10.1h-5.2l-5.2-6.8C677.2-17.4,680-18.6,683.2-19.2z M672.8-14.4l4.1,5.3h-9.2C668.7-10.5,670.5-12.5,672.8-14.4z M667.6-6.6
	h8.9l-3.7,5.4C670.5-3.1,668.7-5.2,667.6-6.6z M674.9,0.2l4.7-6.8h4.6l-5.7,8.7C677.2,1.6,676,0.9,674.9,0.2z M686.3,3.8
	c-1.9,0-3.7-0.3-5.3-0.8l6.3-9.6h5.1L686.3,3.8z M702-2.9c-1.6,2.4-5.3,5.9-12.7,6.6l6-10.2h6.8L702-2.9L702-2.9z M702.1-12.6
	c-0.1,0.2-0.1,0.4-0.1,0.7v2.8h-6.3l-3.7-9.8C697.7-17.7,700.6-14.8,702.1-12.6L702.1-12.6z M705.5-5.4V9.8c0,0.3-0.2,0.5-0.5,0.5
	s-0.5-0.2-0.5-0.5V-2.6v-9.3c0-0.1,0-0.2,0.1-0.3l0,0c0.1-0.2,0.3-0.3,0.5-0.3s0.4,0.1,0.5,0.3l0,0c0,0.1,0,0.1,0,0.2v6.6H705.5z
	 M706.4-14.6c-0.4-0.2-0.9-0.4-1.4-0.4s-0.9,0.1-1.3,0.3c-1.8-2.4-5.5-5.8-12.3-6.9c-0.2-0.4-0.3-0.7-0.3-0.7
	c-3.4-5.8-4.6-11.2-3.3-15.8c1.1-4,3.8-6.7,5.7-8.2c-0.4,3.7-0.1,7.1,0.8,10.1c0,0.1,0,0.1,0.1,0.2c0.7,2.4,1.8,4.5,3.3,6.5
	c4.6,6.1,11.6,8.5,15.4,9.4C709.6-18.4,707.6-16.2,706.4-14.6z M708-12.4c0.9-1.7,3.5-5.1,9.4-6.9L713-9.8l-5,0.2V-12
	C708-12.1,708-12.2,708-12.4z M708-5.7V-7l5.1-0.2l2.4,7.7C711-1.4,708.8-4.3,708-5.7z M718.5,1.4l-2.8-8.8l3.5-0.2l5.5,9.8
	C722.4,2.2,720.3,1.9,718.5,1.4z M727.6,2.2l-5.5-9.9l7.4-0.3l5.3,8.7C732.6,1.5,730.2,2.1,727.6,2.2z M737.1-0.2L732.3-8l5.3-0.2
	l4,5.4C740.3-2,738.8-1.1,737.1-0.2z M743.6-4.5l-2.9-3.9l7.1-0.3C747-7.8,745.6-6.2,743.6-4.5z"/>
<rect x="777.8" y="257.9" class="st3" width="29.7" height="38.6"/>
<path class="st3" d="M804.2,239.6c0,0,0-13.1-11.6-13.1c-11.6,0-11.6,13.1-11.6,13.1v18.3h23.1L804.2,239.6L804.2,239.6z"/>
<polygon class="st1" points="792.7,274.3 718,308.8 867.4,308.8 "/>
<polygon class="st4" points="792.7,274.3 718,308.8 867.4,308.8 "/>
<g>
	<path class="st5" d="M814.6,307.5c-3-9.3-11.7-16-21.9-16c-10.3,0-18.9,6.7-21.9,16"/>
</g>
<g>
	<path d="M803.2,308c-1.4-4.4-5.6-7.7-10.5-7.7c-4.9,0-9.1,3.2-10.5,7.7H803.2z"/>
</g>
<g>
	<path class="st5" d="M803.2,308c-1.4-4.4-5.6-7.7-10.5-7.7c-4.9,0-9.1,3.2-10.5,7.7"/>
</g>
<circle cx="763.6" cy="299.5" r="4.7"/>
<circle cx="821.8" cy="299.5" r="4.7"/>
<circle class="st5" cx="763.6" cy="299.5" r="4.7"/>
<circle class="st5" cx="821.8" cy="299.5" r="4.7"/>
<g>
	<path d="M740.4,325.6c-2,0-3.7,1.7-3.7,3.7v15.8h7.4v-15.8C744.1,327.3,742.5,325.6,740.4,325.6z"/>
	<path d="M757.9,325.6c-2,0-3.7,1.7-3.7,3.7v15.8h7.4v-15.8C761.6,327.3,759.9,325.6,757.9,325.6z"/>
	<path d="M775.4,325.6c-2,0-3.7,1.7-3.7,3.7v15.8h7.4v-15.8C779.1,327.3,777.4,325.6,775.4,325.6z"/>
	<path d="M792.9,325.6c-2,0-3.7,1.7-3.7,3.7v15.8h7.4v-15.8C796.6,327.3,794.9,325.6,792.9,325.6z"/>
	<path d="M810.3,325.6c-2,0-3.7,1.7-3.7,3.7v15.8h7.4v-15.8C814,327.3,812.4,325.6,810.3,325.6z"/>
	<path d="M827.8,325.6c-2,0-3.7,1.7-3.7,3.7v15.8h7.4v-15.8C831.5,327.3,829.9,325.6,827.8,325.6z"/>
	<path d="M845.3,325.6c-2,0-3.7,1.7-3.7,3.7v15.8h7.4v-15.8C849,327.3,847.4,325.6,845.3,325.6z"/>
</g>
<g>
	<path d="M740.4,355.2c-2,0-3.7,1.7-3.7,3.7v15.8h7.4v-15.8C744.1,356.8,742.5,355.2,740.4,355.2z"/>
	<path d="M757.9,355.2c-2,0-3.7,1.7-3.7,3.7v15.8h7.4v-15.8C761.6,356.8,759.9,355.2,757.9,355.2z"/>
	<path d="M775.4,355.2c-2,0-3.7,1.7-3.7,3.7v15.8h7.4v-15.8C779.1,356.8,777.4,355.2,775.4,355.2z"/>
	<path d="M792.9,355.2c-2,0-3.7,1.7-3.7,3.7v15.8h7.4v-15.8C796.6,356.8,794.9,355.2,792.9,355.2z"/>
	<path d="M810.3,355.2c-2,0-3.7,1.7-3.7,3.7v15.8h7.4v-15.8C814,356.8,812.4,355.2,810.3,355.2z"/>
	<path d="M827.8,355.2c-2,0-3.7,1.7-3.7,3.7v15.8h7.4v-15.8C831.5,356.8,829.9,355.2,827.8,355.2z"/>
	<path d="M845.3,355.2c-2,0-3.7,1.7-3.7,3.7v15.8h7.4v-15.8C849,356.8,847.4,355.2,845.3,355.2z"/>
</g>
<g>
	<path d="M740.4,387.2c-2,0-3.7,1.7-3.7,3.7v15.8h7.4v-15.8C744.1,388.9,742.5,387.2,740.4,387.2z"/>
	<path d="M757.9,387.2c-2,0-3.7,1.7-3.7,3.7v15.8h7.4v-15.8C761.6,388.9,759.9,387.2,757.9,387.2z"/>
	<path d="M775.4,387.2c-2,0-3.7,1.7-3.7,3.7v15.8h7.4v-15.8C779.1,388.9,777.4,387.2,775.4,387.2z"/>
	<path d="M792.9,387.2c-2,0-3.7,1.7-3.7,3.7v15.8h7.4v-15.8C796.6,388.9,794.9,387.2,792.9,387.2z"/>
	<path d="M810.3,387.2c-2,0-3.7,1.7-3.7,3.7v15.8h7.4v-15.8C814,388.9,812.4,387.2,810.3,387.2z"/>
	<path d="M827.8,387.2c-2,0-3.7,1.7-3.7,3.7v15.8h7.4v-15.8C831.5,388.9,829.9,387.2,827.8,387.2z"/>
	<path d="M845.3,387.2c-2,0-3.7,1.7-3.7,3.7v15.8h7.4v-15.8C849,388.9,847.4,387.2,845.3,387.2z"/>
</g>
<g>
	<path class="st5" d="M740.4,325.6c-2,0-3.7,1.7-3.7,3.7v15.8h7.4v-15.8C744.1,327.3,742.5,325.6,740.4,325.6z"/>
	<path class="st5" d="M757.9,325.6c-2,0-3.7,1.7-3.7,3.7v15.8h7.4v-15.8C761.6,327.3,759.9,325.6,757.9,325.6z"/>
	<path class="st5" d="M775.4,325.6c-2,0-3.7,1.7-3.7,3.7v15.8h7.4v-15.8C779.1,327.3,777.4,325.6,775.4,325.6z"/>
	<path class="st5" d="M792.9,325.6c-2,0-3.7,1.7-3.7,3.7v15.8h7.4v-15.8C796.6,327.3,794.9,325.6,792.9,325.6z"/>
	<path class="st5" d="M810.3,325.6c-2,0-3.7,1.7-3.7,3.7v15.8h7.4v-15.8C814,327.3,812.4,325.6,810.3,325.6z"/>
	<path class="st5" d="M827.8,325.6c-2,0-3.7,1.7-3.7,3.7v15.8h7.4v-15.8C831.5,327.3,829.9,325.6,827.8,325.6z"/>
	<path class="st5" d="M845.3,325.6c-2,0-3.7,1.7-3.7,3.7v15.8h7.4v-15.8C849,327.3,847.4,325.6,845.3,325.6z"/>
</g>
<g>
	<path class="st5" d="M740.4,355.2c-2,0-3.7,1.7-3.7,3.7v15.8h7.4v-15.8C744.1,356.8,742.5,355.2,740.4,355.2z"/>
	<path class="st5" d="M757.9,355.2c-2,0-3.7,1.7-3.7,3.7v15.8h7.4v-15.8C761.6,356.8,759.9,355.2,757.9,355.2z"/>
	<path class="st5" d="M775.4,355.2c-2,0-3.7,1.7-3.7,3.7v15.8h7.4v-15.8C779.1,356.8,777.4,355.2,775.4,355.2z"/>
	<path class="st5" d="M792.9,355.2c-2,0-3.7,1.7-3.7,3.7v15.8h7.4v-15.8C796.6,356.8,794.9,355.2,792.9,355.2z"/>
	<path class="st5" d="M810.3,355.2c-2,0-3.7,1.7-3.7,3.7v15.8h7.4v-15.8C814,356.8,812.4,355.2,810.3,355.2z"/>
	<path class="st5" d="M827.8,355.2c-2,0-3.7,1.7-3.7,3.7v15.8h7.4v-15.8C831.5,356.8,829.9,355.2,827.8,355.2z"/>
	<path class="st5" d="M845.3,355.2c-2,0-3.7,1.7-3.7,3.7v15.8h7.4v-15.8C849,356.8,847.4,355.2,845.3,355.2z"/>
</g>
<g>
	<path class="st5" d="M740.4,387.2c-2,0-3.7,1.7-3.7,3.7v15.8h7.4v-15.8C744.1,388.9,742.5,387.2,740.4,387.2z"/>
	<path class="st5" d="M757.9,387.2c-2,0-3.7,1.7-3.7,3.7v15.8h7.4v-15.8C761.6,388.9,759.9,387.2,757.9,387.2z"/>
	<path class="st5" d="M775.4,387.2c-2,0-3.7,1.7-3.7,3.7v15.8h7.4v-15.8C779.1,388.9,777.4,387.2,775.4,387.2z"/>
	<path class="st5" d="M792.9,387.2c-2,0-3.7,1.7-3.7,3.7v15.8h7.4v-15.8C796.6,388.9,794.9,387.2,792.9,387.2z"/>
	<path class="st5" d="M810.3,387.2c-2,0-3.7,1.7-3.7,3.7v15.8h7.4v-15.8C814,388.9,812.4,387.2,810.3,387.2z"/>
	<path class="st5" d="M827.8,387.2c-2,0-3.7,1.7-3.7,3.7v15.8h7.4v-15.8C831.5,388.9,829.9,387.2,827.8,387.2z"/>
	<path class="st5" d="M845.3,387.2c-2,0-3.7,1.7-3.7,3.7v15.8h7.4v-15.8C849,388.9,847.4,387.2,845.3,387.2z"/>
</g>
<path d="M792.9,244c-1.6,0-2.9,1.3-2.9,2.9V257h5.8v-10.1C795.7,245.3,794.5,244,792.9,244z"/>
<path class="st6" d="M792.9,262.6c-1.6,0-2.9,1.3-2.9,2.9v5.4h5.8v-5.4C795.7,263.9,794.5,262.6,792.9,262.6z"/>
<line class="st4" x1="718" y1="350.7" x2="867.4" y2="350.7"/>
<line class="st4" x1="718" y1="382.8" x2="867.4" y2="382.8"/>
<line class="st7" x1="781.1" y1="239.6" x2="804.2" y2="239.6"/>
<line class="st7" x1="777.8" y1="257.9" x2="807.5" y2="257.9"/>
<rect y="435.5" class="st8" width="1192.7" height="20"/>
<polygon class="st9" points="938.4,328.9 927.3,334.6 927.3,412.3 938.4,412.3 956.1,412.3 956.1,332.7 "/>
<rect x="913.6" y="363.9" class="st9" width="13.7" height="48.5"/>
<rect x="956.1" y="372.9" class="st9" width="8.9" height="39.4"/>
<rect x="904.7" y="385" class="st9" width="8.9" height="27.4"/>
<rect x="965" y="381.3" class="st9" width="8.9" height="31"/>
<path class="st8" d="M987,407c5.8,0,10.6,2.3,11.9,5.3h8.4c1.3-3.1,6.2-5.3,11.9-5.3s10.5,2.2,11.9,5.2v-10.8h-57.3v10.9h1.2
	C976.4,409.3,981.3,407,987,407z"/>
<rect y="414.3" class="st6" width="1192.7" height="21.2"/>
<line class="st5" x1="789.2" y1="308.8" x2="789.2" y2="301"/>
<line class="st5" x1="796.3" y1="308.8" x2="796.3" y2="301"/>
<g>
	<g>
		<path class="st3" d="M705.6,272.6h-47.7c-2.9,0-5.3-2.4-5.3-5.3s2.4-5.3,5.3-5.3h47.7c2.9,0,5.3,2.4,5.3,5.3
			C711,270.2,708.6,272.6,705.6,272.6z"/>
	</g>
	<g>
		<path class="st3" d="M697.5,256.8h-19.7c-2.9,0-5.3-2.4-5.3-5.3s2.4-5.3,5.3-5.3h19.7c2.9,0,5.3,2.4,5.3,5.3
			C702.9,254.4,700.5,256.8,697.5,256.8z"/>
	</g>
	<path class="st3" d="M686.4,259.4c0-1.4-1.1-2.5-2.5-2.5h11.4c-1.4,0-2.5,1.1-2.5,2.5s1.1,2.5,2.5,2.5h-11.4
		C685.2,261.9,686.4,260.8,686.4,259.4z"/>
</g>
<g>
	<g>
		<path class="st3" d="M945.1,232.8h-47.7c-2.9,0-5.3-2.4-5.3-5.3c0-2.9,2.4-5.3,5.3-5.3h47.7c2.9,0,5.3,2.4,5.3,5.3
			C950.5,230.4,948.1,232.8,945.1,232.8z"/>
	</g>
	<g>
		<path class="st3" d="M925.4,217.1h-19.7c-2.9,0-5.3-2.4-5.3-5.3c0-2.9,2.4-5.3,5.3-5.3h19.7c2.9,0,5.3,2.4,5.3,5.3
			C930.8,214.7,928.4,217.1,925.4,217.1z"/>
	</g>
	<g>
		<path class="st3" d="M947.4,237.9h-59.9c-2.9,0-5.3,2.4-5.3,5.3s2.4,5.3,5.3,5.3h59.9c2.9,0,5.3-2.4,5.3-5.3
			S950.3,237.9,947.4,237.9z"/>
	</g>
	<path class="st3" d="M929.7,235.4c0-1.4-1.1-2.5-2.5-2.5h11.4c-1.4,0-2.5,1.1-2.5,2.5s1.1,2.5,2.5,2.5h-11.4
		C928.6,237.9,929.7,236.8,929.7,235.4z"/>
	<path class="st3" d="M912.4,219.6c0-1.4-1.1-2.5-2.5-2.5h11.4c-1.4,0-2.5,1.1-2.5,2.5s1.1,2.5,2.5,2.5h-11.4
		C911.2,222.1,912.4,221,912.4,219.6z"/>
</g>
<g>
	<g>
		<path class="st3" d="M606.5,212.3h35.4c2.9,0,5.3-2.4,5.3-5.3c0-2.9-2.4-5.3-5.3-5.3h-35.4c-2.9,0-5.3,2.4-5.3,5.3
			C601.2,209.9,603.6,212.3,606.5,212.3z"/>
	</g>
	<g>
		<path class="st3" d="M592.2,228h57.7c2.9,0,5.3-2.4,5.3-5.3c0-2.9-2.4-5.3-5.3-5.3h-57.7c-2.9,0-5.3,2.4-5.3,5.3
			C586.8,225.6,589.2,228,592.2,228z"/>
	</g>
	<path class="st3" d="M631.2,214.8c0-1.4-1.1-2.5-2.5-2.5h11.4c-1.4,0-2.5,1.1-2.5,2.5s1.1,2.5,2.5,2.5h-11.4
		C630,217.3,631.2,216.2,631.2,214.8z"/>
	<path class="st3" d="M617.8,199.1c0-1.4-1.1-2.5-2.5-2.5h11.4c-1.4,0-2.5,1.1-2.5,2.5s1.1,2.5,2.5,2.5h-11.4
		C616.7,201.6,617.8,200.5,617.8,199.1z"/>
	<g>
		<path class="st3" d="M611.1,196.5h19.7c2.9,0,5.3-2.4,5.3-5.3c0-2.9-2.4-5.3-5.3-5.3h-19.7c-2.9,0-5.3,2.4-5.3,5.3
			C605.8,194.1,608.2,196.5,611.1,196.5z"/>
	</g>
</g>
<rect x="556.3" y="360.2" class="st1" width="144.6" height="52.2"/>
<rect x="556.3" y="360.2" class="st5" width="144.6" height="52.2"/>
<polygon class="st3" points="701.1,360.2 556.1,360.2 556.1,364.9 590.2,364.9 590.2,363 667,363 667.9,364.9 701.1,364.9 "/>
<rect x="588.4" y="387.5" class="st5" width="80.5" height="24.8"/>
<rect x="604.8" y="345.6" class="st3" width="47.7" height="12.3"/>
<polygon class="st1" points="604.8,345.6 652.5,345.6 628.6,335.8 "/>
<rect x="604.8" y="345.6" class="st5" width="47.7" height="12.3"/>
<rect x="625.2" y="313.5" class="st3" width="7" height="11.2"/>
<path class="st10" d="M611,345.6h35.3c0,0,0.6-22.9-17.7-22.9C610.3,322.8,611,345.6,611,345.6z"/>
<path class="st5" d="M611,345.6h35.3c0,0,0.6-22.9-17.7-22.9C610.3,322.8,611,345.6,611,345.6z"/>
<polygon class="st1" points="604.8,345.6 652.5,345.6 628.6,335.8 "/>
<polygon class="st11" points="604.8,345.6 652.5,345.6 628.6,335.8 "/>
<path class="st10" d="M632.1,313.4c0,0,0-4-3.5-4s-3.5,4-3.5,4H632.1z"/>
<g>
	<path d="M596.1,390.9c-1.3,0-2.3,1-2.3,2.3v19.1h4.6v-19.1C598.4,391.9,597.3,390.9,596.1,390.9z"/>
	<path d="M606.9,390.9c-1.3,0-2.3,1-2.3,2.3v19.1h4.6v-19.1C609.2,391.9,608.2,390.9,606.9,390.9z"/>
	<path d="M617.8,390.9c-1.3,0-2.3,1-2.3,2.3v19.1h4.6v-19.1C620.1,391.9,619,390.9,617.8,390.9z"/>
	<path d="M628.6,390.9c-1.3,0-2.3,1-2.3,2.3v19.1h4.6v-19.1C630.9,391.9,629.9,390.9,628.6,390.9z"/>
	<path d="M639.5,390.9c-1.3,0-2.3,1-2.3,2.3v19.1h4.6v-19.1C641.8,391.9,640.8,390.9,639.5,390.9z"/>
	<path d="M650.4,390.9c-1.3,0-2.3,1-2.3,2.3v19.1h4.6v-19.1C652.7,391.9,651.6,390.9,650.4,390.9z"/>
	<path d="M661.2,390.9c-1.3,0-2.3,1-2.3,2.3v19.1h4.6v-19.1C663.5,391.9,662.5,390.9,661.2,390.9z"/>
</g>
<g>
	<path class="st5" d="M596.1,390.9c-1.3,0-2.3,1-2.3,2.3v19.1h4.6v-19.1C598.4,391.9,597.3,390.9,596.1,390.9z"/>
	<path class="st5" d="M606.9,390.9c-1.3,0-2.3,1-2.3,2.3v19.1h4.6v-19.1C609.2,391.9,608.2,390.9,606.9,390.9z"/>
	<path class="st5" d="M617.8,390.9c-1.3,0-2.3,1-2.3,2.3v19.1h4.6v-19.1C620.1,391.9,619,390.9,617.8,390.9z"/>
	<path class="st5" d="M628.6,390.9c-1.3,0-2.3,1-2.3,2.3v19.1h4.6v-19.1C630.9,391.9,629.9,390.9,628.6,390.9z"/>
	<path class="st5" d="M639.5,390.9c-1.3,0-2.3,1-2.3,2.3v19.1h4.6v-19.1C641.8,391.9,640.8,390.9,639.5,390.9z"/>
	<path class="st5" d="M650.4,390.9c-1.3,0-2.3,1-2.3,2.3v19.1h4.6v-19.1C652.7,391.9,651.6,390.9,650.4,390.9z"/>
	<path class="st5" d="M661.2,390.9c-1.3,0-2.3,1-2.3,2.3v19.1h4.6v-19.1C663.5,391.9,662.5,390.9,661.2,390.9z"/>
</g>
<rect x="588.4" y="358.2" class="st3" width="80.5" height="4.8"/>
<line class="st12" x1="591.9" y1="363" x2="591.9" y2="387.5"/>
<line class="st12" x1="601.2" y1="363" x2="601.2" y2="387.5"/>
<line class="st12" x1="610.5" y1="363" x2="610.5" y2="387.5"/>
<line class="st12" x1="619.8" y1="363" x2="619.8" y2="387.5"/>
<line class="st12" x1="629.1" y1="363" x2="629.1" y2="387.5"/>
<line class="st12" x1="638.4" y1="363" x2="638.4" y2="387.5"/>
<line class="st12" x1="647.7" y1="363" x2="647.7" y2="387.5"/>
<line class="st12" x1="657" y1="363" x2="657" y2="387.5"/>
<line class="st12" x1="666.3" y1="363" x2="666.3" y2="387.5"/>
<path d="M683.7,370.2c-2,0-3.7,1.7-3.7,3.7v15.8h7.4v-15.8C687.4,371.9,685.8,370.2,683.7,370.2z"/>
<path class="st5" d="M683.7,370.2c-2,0-3.7,1.7-3.7,3.7v15.8h7.4v-15.8C687.4,371.9,685.8,370.2,683.7,370.2z"/>
<path d="M574.4,370.2c2,0,3.7,1.7,3.7,3.7v15.8h-7.4v-15.8C570.7,371.9,572.4,370.2,574.4,370.2z"/>
<path class="st5" d="M574.4,370.2c2,0,3.7,1.7,3.7,3.7v15.8h-7.4v-15.8C570.7,371.9,572.4,370.2,574.4,370.2z"/>
<g>
	<rect x="642" y="347.7" class="st1" width="6.1" height="8.3"/>
	<rect x="633.8" y="347.7" class="st1" width="6.1" height="8.3"/>
	<rect x="625.6" y="347.7" class="st1" width="6.1" height="8.3"/>
	<rect x="617.4" y="347.7" class="st1" width="6.1" height="8.3"/>
	<rect x="609.2" y="347.7" class="st1" width="6.1" height="8.3"/>
</g>
<rect x="643.2" y="348.9" class="st3" width="3.7" height="5.8"/>
<rect x="635" y="348.9" class="st3" width="3.7" height="5.8"/>
<rect x="626.8" y="348.9" class="st3" width="3.7" height="5.8"/>
<rect x="618.6" y="348.9" class="st3" width="3.7" height="5.8"/>
<rect x="610.4" y="348.9" class="st3" width="3.7" height="5.8"/>
<line class="st5" x1="0" y1="419.3" x2="1192.7" y2="419.3"/>
<line class="st5" x1="1192.7" y1="435.3" x2="0" y2="435.3"/>
<rect x="556.3" y="417.7" class="st3" width="146.2" height="3.3"/>
<rect x="588.4" y="413.8" class="st3" width="80.5" height="5.1"/>
<g>
	<g>
		<path class="st3" d="M1121.4,260.5h-47.7c-2.9,0-5.3-2.4-5.3-5.3c0-2.9,2.4-5.3,5.3-5.3h47.7c2.9,0,5.3,2.4,5.3,5.3
			C1126.7,258.1,1124.3,260.5,1121.4,260.5z"/>
	</g>
	<g>
		<path class="st3" d="M1113.3,244.8h-19.7c-2.9,0-5.3-2.4-5.3-5.3s2.4-5.3,5.3-5.3h19.7c2.9,0,5.3,2.4,5.3,5.3
			S1116.2,244.8,1113.3,244.8z"/>
	</g>
	<path class="st3" d="M1102.1,247.3c0-1.4-1.1-2.5-2.5-2.5h11.4c-1.4,0-2.5,1.1-2.5,2.5s1.1,2.5,2.5,2.5h-11.4
		C1100.9,249.8,1102.1,248.7,1102.1,247.3z"/>
</g>
<g>
	<g>
		<path class="st3" d="M1022.2,200.2h35.4c2.9,0,5.3-2.4,5.3-5.3c0-2.9-2.4-5.3-5.3-5.3h-35.4c-2.9,0-5.3,2.4-5.3,5.3
			S1019.3,200.2,1022.2,200.2z"/>
	</g>
	<g>
		<path class="st3" d="M1007.9,216h57.7c2.9,0,5.3-2.4,5.3-5.3c0-2.9-2.4-5.3-5.3-5.3h-57.7c-2.9,0-5.3,2.4-5.3,5.3
			C1002.5,213.6,1004.9,216,1007.9,216z"/>
	</g>
	<path class="st3" d="M1046.9,202.7c0-1.4-1.1-2.5-2.5-2.5h11.4c-1.4,0-2.5,1.1-2.5,2.5s1.1,2.5,2.5,2.5h-11.4
		C1045.8,205.3,1046.9,204.1,1046.9,202.7z"/>
	<path class="st3" d="M1033.5,187c0-1.4-1.1-2.5-2.5-2.5h11.4c-1.4,0-2.5,1.1-2.5,2.5s1.1,2.5,2.5,2.5H1031
		C1032.4,189.5,1033.5,188.4,1033.5,187z"/>
	<g>
		<path class="st3" d="M1026.9,184.5h19.7c2.9,0,5.3-2.4,5.3-5.3c0-2.9-2.4-5.3-5.3-5.3h-19.7c-2.9,0-5.3,2.4-5.3,5.3
			C1021.5,182.1,1023.9,184.5,1026.9,184.5z"/>
	</g>
</g>
<g>
	<g>
		<path class="st3" d="M500.1,243.2h-47.6c-2.9,0-5.3-2.4-5.3-5.3s2.4-5.3,5.3-5.3h47.7c2.9,0,5.3,2.4,5.3,5.3
			C505.5,240.8,503.1,243.2,500.1,243.2z"/>
	</g>
	<g>
		<path class="st3" d="M480.5,227.5h-19.8c-2.9,0-5.3-2.4-5.3-5.3c0-2.9,2.4-5.3,5.3-5.3h19.7c2.9,0,5.3,2.4,5.3,5.3
			C485.8,225.1,483.4,227.5,480.5,227.5z"/>
	</g>
	<g>
		<path class="st3" d="M502.4,248.3h-59.9c-2.9,0-5.3,2.4-5.3,5.3c0,2.9,2.4,5.3,5.3,5.3h59.9c2.9,0,5.3-2.4,5.3-5.3
			C507.7,250.7,505.3,248.3,502.4,248.3z"/>
	</g>
	<path class="st3" d="M484.7,245.8c0-1.4-1.1-2.5-2.5-2.5h11.4c-1.4,0-2.5,1.1-2.5,2.5s1.1,2.5,2.5,2.5h-11.4
		C483.6,248.3,484.7,247.2,484.7,245.8z"/>
	<path class="st3" d="M467.4,230c0-1.4-1.1-2.5-2.5-2.5h11.4c-1.4,0-2.5,1.1-2.5,2.5s1.1,2.5,2.5,2.5h-11.5
		C466.2,232.5,467.4,231.4,467.4,230z"/>
</g>
<path class="st8" d="M1019.2,407c5.8,0,10.6,2.3,11.9,5.3h8.4c1.3-3.1,6.2-5.3,11.9-5.3c5.7,0,10.5,2.2,11.9,5.2v-10.8H1006v10.9
	h1.2C1008.6,409.2,1013.5,407,1019.2,407z"/>
<path class="st8" d="M1051.5,407c5.8,0,10.6,2.3,11.9,5.3h8.4c1.3-3.1,6.2-5.3,11.9-5.3c5.7,0,10.5,2.2,11.9,5.2v-10.8h-57.3v10.9
	h1.2C1040.9,409.2,1045.8,407,1051.5,407z"/>
<path class="st8" d="M1084,407c5.8,0,10.6,2.3,11.9,5.3h8.4c1.3-3.1,6.2-5.3,11.9-5.3c5.7,0,10.5,2.2,11.9,5.2v-10.8h-57.3v10.9h1.2
	C1073.4,409.3,1078.3,407,1084,407z"/>
<path class="st8" d="M1116.5,407c5.8,0,10.6,2.3,11.9,5.3h8.4c1.3-3.1,6.2-5.3,11.9-5.3c5.7,0,10.5,2.2,11.9,5.2v-10.8h-57.3v10.9
	h1.2C1105.9,409.2,1110.8,407,1116.5,407z"/>
<path class="st8" d="M1148.5,407c5.8,0,10.6,2.3,11.9,5.3h8.4c1.3-3.1,6.2-5.3,11.9-5.3c5.7,0,10.5,2.2,11.9,5.2v-10.8h-57.3v10.9
	h1.2C1137.9,409.2,1142.8,407,1148.5,407z"/>
<g>
	<g>
		<path class="st3" d="M359,293.9h-47.6c-2.9,0-5.3-2.4-5.3-5.3s2.4-5.3,5.3-5.3h47.7c2.9,0,5.3,2.4,5.3,5.3
			C364.4,291.5,362,293.9,359,293.9z"/>
	</g>
	<g>
		<path class="st3" d="M339.4,278.2h-19.8c-2.9,0-5.3-2.4-5.3-5.3s2.4-5.3,5.3-5.3h19.7c2.9,0,5.3,2.4,5.3,5.3
			C344.7,275.8,342.3,278.2,339.4,278.2z"/>
	</g>
	<g>
		<path class="st3" d="M361.3,299h-59.9c-2.9,0-5.3,2.4-5.3,5.3s2.4,5.3,5.3,5.3h59.9c2.9,0,5.3-2.4,5.3-5.3
			C366.6,301.4,364.2,299,361.3,299z"/>
	</g>
	<path class="st3" d="M343.6,296.5c0-1.4-1.1-2.5-2.5-2.5h11.4c-1.4,0-2.5,1.1-2.5,2.5s1.1,2.5,2.5,2.5h-11.4
		C342.5,299,343.6,297.9,343.6,296.5z"/>
	<path class="st3" d="M326.3,280.7c0-1.4-1.1-2.5-2.5-2.5h11.4c-1.4,0-2.5,1.1-2.5,2.5s1.1,2.5,2.5,2.5h-11.5
		C325.1,283.2,326.3,282.1,326.3,280.7z"/>
</g>
<g>
	<g>
		<path class="st3" d="M179.6,274.2H132c-2.9,0-5.3-2.4-5.3-5.3s2.4-5.3,5.3-5.3h47.7c2.9,0,5.3,2.4,5.3,5.3
			C185,271.8,182.6,274.2,179.6,274.2z"/>
	</g>
	<g>
		<path class="st3" d="M160,258.5h-19.8c-2.9,0-5.3-2.4-5.3-5.3c0-2.9,2.4-5.3,5.3-5.3h19.7c2.9,0,5.3,2.4,5.3,5.3
			C165.3,256.1,162.9,258.5,160,258.5z"/>
	</g>
	<g>
		<path class="st3" d="M181.9,279.3H122c-2.9,0-5.3,2.4-5.3,5.3s2.4,5.3,5.3,5.3h59.9c2.9,0,5.3-2.4,5.3-5.3
			C187.2,281.7,184.8,279.3,181.9,279.3z"/>
	</g>
	<path class="st3" d="M164.2,276.8c0-1.4-1.1-2.5-2.5-2.5h11.4c-1.4,0-2.5,1.1-2.5,2.5s1.1,2.5,2.5,2.5h-11.4
		C163.1,279.3,164.2,278.2,164.2,276.8z"/>
	<path class="st3" d="M146.9,261c0-1.4-1.1-2.5-2.5-2.5h11.4c-1.4,0-2.5,1.1-2.5,2.5s1.1,2.5,2.5,2.5h-11.5
		C145.7,263.5,146.9,262.4,146.9,261z"/>
</g>
<g>
	<g>
		<path class="st3" d="M84.1,198.2H36.5c-2.9,0-5.3-2.4-5.3-5.3s2.4-5.3,5.3-5.3h47.7c2.9,0,5.3,2.4,5.3,5.3
			C89.5,195.8,87.1,198.2,84.1,198.2z"/>
	</g>
	<g>
		<path class="st3" d="M64.5,182.5H44.7c-2.9,0-5.3-2.4-5.3-5.3c0-2.9,2.4-5.3,5.3-5.3h19.7c2.9,0,5.3,2.4,5.3,5.3
			C69.8,180.1,67.4,182.5,64.5,182.5z"/>
	</g>
	<g>
		<path class="st3" d="M86.4,203.3H26.5c-2.9,0-5.3,2.4-5.3,5.3s2.4,5.3,5.3,5.3h59.9c2.9,0,5.3-2.4,5.3-5.3
			C91.7,205.7,89.3,203.3,86.4,203.3z"/>
	</g>
	<path class="st3" d="M68.7,200.8c0-1.4-1.1-2.5-2.5-2.5h11.4c-1.4,0-2.5,1.1-2.5,2.5s1.1,2.5,2.5,2.5H66.2
		C67.6,203.3,68.7,202.2,68.7,200.8z"/>
	<path class="st3" d="M51.4,185c0-1.4-1.1-2.5-2.5-2.5h11.4c-1.4,0-2.5,1.1-2.5,2.5s1.1,2.5,2.5,2.5H48.8
		C50.2,187.5,51.4,186.4,51.4,185z"/>
</g>
<g>
	<g>
		<path class="st3" d="M267,235.9h-47.7c-2.9,0-5.3-2.4-5.3-5.3s2.4-5.3,5.3-5.3H267c2.9,0,5.3,2.4,5.3,5.3
			C272.4,233.5,270,235.9,267,235.9z"/>
	</g>
	<g>
		<path class="st3" d="M258.9,220.1h-19.7c-2.9,0-5.3-2.4-5.3-5.3s2.4-5.3,5.3-5.3h19.7c2.9,0,5.3,2.4,5.3,5.3
			C264.3,217.7,261.9,220.1,258.9,220.1z"/>
	</g>
	<path class="st3" d="M247.8,222.7c0-1.4-1.1-2.5-2.5-2.5h11.4c-1.4,0-2.5,1.1-2.5,2.5s1.1,2.5,2.5,2.5h-11.4
		C246.6,225.2,247.8,224.1,247.8,222.7z"/>
</g>
</svg>
