<svg viewBox="0 0 304.97 371.22" xmlns="http://www.w3.org/2000/svg"><g fill="#f9f9f9"><path d="m1271.94 1024.38c-4.83.12-47.4 1.19-56.16 3.36-6.22 1.55-17.53-1.19-21.36-2.38a3.72 3.72 0 0 0 -2.21 7.11c.51.16 10.31 3.17 19.08 3.17a26.27 26.27 0 0 0 6.29-.67c6.74-1.67 41.66-2.83 54.55-3.14a3.73 3.73 0 0 0 -.19-7.45z" transform="translate(-970.79 -740.01)"/><path d="m186.68 126.97 2.5.58"/><g transform="translate(-970.79 -740.01)"><path d="m1268.83 901.86a3.7 3.7 0 0 0 .21-1.32s0 0 0 0 0-.13 0-.2a3.67 3.67 0 0 0 -.27-1.07 3.57 3.57 0 0 0 -.23-.42 3.61 3.61 0 0 0 -.23-.43c-1-1.31-21.09-26.59-59.16-36a33 33 0 0 0 11.25-24.42c0-14.25-9.06-23.75-13.48-27.53a29.28 29.28 0 0 0 2.21-10.23c.33-10.16-4.54-20.32-13.39-27.9-6.38-5.46-14.3-8.11-21.84-9.27 0-.08 0-.18-.08-.26a46.12 46.12 0 0 0 -40.54-22.81c-20.71 0-32 9.89-36.74 15.5a22.47 22.47 0 0 0 -10-4.44c-10-1.73-20.62 3-28.41 12.55-11.72 14.41-11.13 30.64-10.36 36.86-10.48 6.7-20.22 17.72-20.22 35.55a54.63 54.63 0 0 0 10.83 32.55c-26.1 10.81-43.17 34.77-44.08 36.07a3.66 3.66 0 0 0 -.3.56c0 .06-.07.12-.1.18a3.69 3.69 0 0 0 -.25 1.26s0 .09 0 .13 0 .1 0 .15a3.68 3.68 0 0 0 .24 1.24c.55 1.34 9.16 21.46 33.33 33.43-14.47 4.19-31.09 8-52.73 8a3.73 3.73 0 1 0 0 7.45c28 0 47.68-6.05 65.06-11.39 12.61-3.87 23.5-7.22 34.83-7.22 23.48 0 35.25 12 35.44 12.2l7.82 7.82a3.72 3.72 0 1 0 5.27-5.27l-1.77-1.77v-57.01a1.83 1.83 0 0 1 3.67 0v54.34a3.73 3.73 0 0 0 7.45 0v-15.3a47.7 47.7 0 0 0 10.06 8.12 3.73 3.73 0 1 0 3.87-6.37c-9.21-5.6-13-12.6-13.93-14.56v-10.28l16.86-.75 8.13 25.82a3.73 3.73 0 1 0 7.11-2.24l-7.54-23.93 11.56-.52 13.41 24a3.73 3.73 0 1 0 6.5-3.64l-11.59-20.71 23.69-1.06 16.7 27.26c-.94.43-1.88.86-2.85 1.27a3.73 3.73 0 1 0 2.86 6.88c2.46-1 4.8-2.13 7.1-3.28.06 0 .13 0 .19-.08a129.79 129.79 0 0 0 43.89-36.48 3.62 3.62 0 0 0 .29-.59 3.51 3.51 0 0 0 .26-.44zm-111.83-.08 16.15-34.69a34.53 34.53 0 0 1 6.85-.75 113.11 113.11 0 0 1 15.6 1.09l-26.91 33.84zm-59.74-126.36a21.49 21.49 0 0 1 2.94-2.08c3 3.73 9 9.72 18.25 11.06a26.11 26.11 0 0 0 3.74.27c6.5 0 13.25-2.45 20.18-7.2-2.17 4.55-6 10.34-12.67 16.76a14.69 14.69 0 0 1 -11.09 4.39c-10.33-.37-20.86-10-24.24-13.38.22-1.9.47-3.83.8-5.79a8.81 8.81 0 0 1 2.07-4.03zm12.31-3.09a16.16 16.16 0 0 1 14.28-7.65c5.78 0 8.66 4.55 10.11 9.2-5.07 2.68-9.88 3.78-14.37 3.15a19.86 19.86 0 0 1 -10.04-4.69zm-15.83 22.41c5.75 4.81 14.92 11 24.58 11.31a22.08 22.08 0 0 0 16.53-6.46c12.65-12.11 16.35-22.63 17.41-28.24 3.05.52 7.48 1.77 10.2 4.76 1.93 2.13 2.73 4.87 2.43 8.37-.72 8.33-10.38 27.27-27.07 35.39-12.87 6.26-26.85 4.7-41.57-4.56a72.74 72.74 0 0 1 -2.52-20.56zm28.05 36.31a43.92 43.92 0 0 0 19.28-4.48c18.57-9 29.9-29.34 31.16-40.93 6.66 5.44 17.38 17.62 17.38 39.82 0 16.11-5 27.77-14.56 33.72h-.05a48.19 48.19 0 0 0 -5.53 1.08c-.09 0-.18 0-.27.07a65.78 65.78 0 0 0 -9.53 3.28l-1.35-.31c-.07 0-.13 0-.2 0s-.14-.06-.22-.07c-.33 0-33.79-4.12-52.13-28.48a57 57 0 0 1 -5.44-8.79 51 51 0 0 0 21.45 5.1zm82.15 37.84a108.94 108.94 0 0 1 14.83 4.39l-18.33 26.56-21.89 1zm21.88 7.3c3.46 1.57 6.71 3.23 9.69 4.95l-9.68 17.56-16 .72zm16 8.89a109.39 109.39 0 0 1 15.26 12.22l-22.55 1zm-28.82-47.08c0 9.13-5.43 17.88-13.85 22.41a121.63 121.63 0 0 0 -12.59-1.3c5.72-6.53 10.54-17 10.54-33.61 0-.67-.07-1.27-.08-1.93a36.39 36.39 0 0 0 6.19-6.47c3.65 3.44 9.79 10.69 9.79 20.9zm-11.26-38a22.68 22.68 0 0 1 -5.58 14c-4.18-25.54-21.5-36.25-25.15-38.24a16.62 16.62 0 0 0 -3-4.64 17.72 17.72 0 0 0 -1.32-1.31c8.08.4 17.43 2.32 24.26 8.16 7.05 6.09 11 14.11 10.74 22.03zm-68.41-52.5a38.86 38.86 0 0 1 31.24 14.79 79.42 79.42 0 0 0 -16.36 1.37c-.09 0-.16.08-.25.11a3.55 3.55 0 0 0 -.39.11c-.08 0-.14.1-.21.13l-.1.06a3.6 3.6 0 0 0 -.62.4c-.07.06-.17.08-.24.15a69.18 69.18 0 0 1 -6 5.16c-3.12-8-8.92-12.51-16.51-12.51a23.29 23.29 0 0 0 -19.3 9.29 27.46 27.46 0 0 0 -2.86-5.56c3.27-4.2 12.7-13.54 31.55-13.54zm-69.39 20.86c6.07-7.46 14.05-11.17 21.37-9.91a15.08 15.08 0 0 1 8.81 4.89l.11.11a17.8 17.8 0 0 1 2.36 3.42 29.61 29.61 0 0 0 -4.24 3 15 15 0 0 0 -4 6.4 62.47 62.47 0 0 0 -16.8 14.77 75.27 75.27 0 0 0 -16.62 5.52c-.31-6.39.6-17.95 8.96-28.24zm-28.94 67.64c0-13.25 6.43-23.61 19.11-30.8a62 62 0 0 1 11.52-5 52.56 52.56 0 0 0 -3.94 10c-4.46 16.13-1.18 34.09 9.7 53.45-2.53-.2-5.15-.33-7.9-.33a63 63 0 0 0 -17.71 2.59c-7.14-9.1-10.78-19.14-10.78-29.91zm64.17 99.55a65.1 65.1 0 0 0 -18.44-4.21l12.17-20.86h20.82v10.14c-.93 2-4.77 9.18-14.53 14.9zm-47-1.26 15.55-23.8h16.52l-12 20.64a90.86 90.86 0 0 0 -20.05 3.18zm-14 4.07-1-.46a69.15 69.15 0 0 1 -9.26-4.32l15.86-23.1h15.06l-17.46 26.72c0 .06 0 .14-.08.2zm16.27-66.78 6.67 31.46h-17.48l-15.73-20.38c7.72-5.08 16.7-9.37 26.56-11.06zm19.07-.22 11.85 31.68h-16.63l-6.83-32.2h1.55a91 91 0 0 1 10.08.54zm40.18 23v8.66h-20.38l-11.31-30.25c19.32 4.26 29.11 14.3 31.7 17.37v4.26zm-91.82-7.36 12.37 16h-29.16a119.49 119.49 0 0 1 16.79-16zm-18.32 23.48h31.19l-13.13 19.12a66.74 66.74 0 0 1 -18.06-19.09zm103.45 28.87a46.87 46.87 0 0 0 6.76-5.92v10.71a44.85 44.85 0 0 0 -6.76-4.79zm16-54.24a9.19 9.19 0 0 0 -3.26.62c-2.9-3.54-14.89-16.32-39-20.79-12.15-19.47-16.18-37.18-11.94-52.64 3.48-12.68 11.92-21.21 17.89-25.9a83.84 83.84 0 0 0 2.65 31.86 3.64 3.64 0 0 0 .2.66 65.14 65.14 0 0 0 10.27 20.4c14.63 19.39 37 27 49 29.83a140.4 140.4 0 0 0 -22.48 16.62 9.2 9.2 0 0 0 -3.33-.66zm9.28 9.28v-3.91c3.89-3.46 17-14.5 31.23-20.38l-14.91 32-16.31.73v-8.43zm76.65 12.52 17.34-.78 11.87 16a117.29 117.29 0 0 1 -14.3 9.15zm35 10.54-8.72-11.72 21.86-1a130.43 130.43 0 0 1 -13.07 12.73z"/><path d="m1035.14 1046c-21.9-28.19-59.76-21-61.36-20.64a3.73 3.73 0 1 0 1.46 7.31c.35-.06 34.92-6.67 54 17.91a48.36 48.36 0 0 0 5.59 6 3.73 3.73 0 0 0 5-5.51 40.76 40.76 0 0 1 -4.69-5.07z"/><path d="m1193 1023.31-1-1-48.83-48.83a3.72 3.72 0 0 0 -5.27 5.27l48.84 48.83 1.07 1.05c3.83 3.75 14 13.71 14 21.19a6.31 6.31 0 0 1 -2 4.74 9.25 9.25 0 0 1 -6.54 2.94c-5.14-.06-10-4.46-11-5.47-2.15-2.24-4.32-4.17-6-5.66-.74-.65-1.34-1.18-1.72-1.56l-16.1-16.1-5.27 5.27 16.1 16.1c.45.45 1.16 1.09 2 1.87 3.47 3.07 11.6 10.25 11.76 15.67a4.71 4.71 0 0 1 -1.58 3.61 7 7 0 0 1 -5.36 2.42c-3.84-.17-7.72-3.88-8.89-5.29a39.62 39.62 0 0 0 -3.61-4.16l-19.37-19.38-5.27 5.27 19.37 19.39c3.16 3.15 5.07 6 5.68 8.54s-.09 4.62-2.3 6.83c-3.67 3.67-9.14 1-11-.05a21.22 21.22 0 0 0 -3.27-4.28c-4.5-4.5-16-17.5-16.16-17.63a3.73 3.73 0 0 0 -5.57 4.95c.48.54 11.8 13.29 16.46 18a12.45 12.45 0 0 1 3.59 6.6 6.88 6.88 0 0 1 -2.1 6.29 3.76 3.76 0 0 1 -2.7 1.07c-2.5 0-8.38-1.79-19.68-13.45a3.73 3.73 0 0 0 -5.35 5.19c10.2 10.52 18.37 15.66 25 15.72h.1a11 11 0 0 0 7.92-3.25 14.42 14.42 0 0 0 4.36-10.24 18 18 0 0 0 3.86.45 13.48 13.48 0 0 0 9.84-4 14.74 14.74 0 0 0 4.66-9.85 15 15 0 0 0 4.07.84h.67a14.53 14.53 0 0 0 10.35-4.61 12.14 12.14 0 0 0 3.76-9.11 13.75 13.75 0 0 0 -.4-2.78 17 17 0 0 0 3 .33h.23a16.18 16.18 0 0 0 11.7-5.12 13.67 13.67 0 0 0 4.19-10c-.02-10.73-11.39-21.86-16.24-26.61z"/><path d="m1115.71 1066.87a13.6 13.6 0 0 0 -3.4.5 20.67 20.67 0 0 0 2.28-8.77 13.66 13.66 0 0 0 -4.18-10 11.29 11.29 0 0 0 -8.13-3.45 15.48 15.48 0 0 0 -5.94 1.31 13 13 0 0 0 -4.43-9.14c-5.94-5.49-12.79-3.69-18.72 0 0-.33.05-.65.05-1a10.53 10.53 0 0 0 -3.28-7.68 9.55 9.55 0 0 0 -6.67-2.74c-6.29 0-12.16 5.91-16.87 10.66l-.94.94a72.94 72.94 0 0 0 -10.58 13.1c-5.64 9.48-3.4 14.88-.54 17.75a10.14 10.14 0 0 0 7.27 3.12 11.9 11.9 0 0 0 3.7-.68c-1.34 4.8-.91 9.37 2.7 13a13.27 13.27 0 0 0 9.59 4.08 15.62 15.62 0 0 0 4.19-.62 12.13 12.13 0 0 0 3.36 10.77 11.94 11.94 0 0 0 8.66 3.73c3.76 0 7.46-1.73 10.89-4.12-.8 3.78-.31 7.41 2.35 10.47a9.09 9.09 0 0 0 7.08 3.14c10.93 0 25.85-16.7 30.2-27.53 3.06-7.62 1.1-11.71-1.08-13.79a10.75 10.75 0 0 0 -7.56-3.05zm-76.08-3.78c-1.9-1.9.24-6.25 1.68-8.67a65.52 65.52 0 0 1 9.44-11.64l1-1c3.14-3.16 8.4-8.46 11.59-8.46a2.07 2.07 0 0 1 1.54.69 3.08 3.08 0 0 1 1 2.37c.06 4.59-5.51 12.23-11 17.77l-1.33 1.35c-2.89 3-8.26 8.48-11.79 8.48a2.66 2.66 0 0 1 -2.13-.89zm13.67 15.42c-4.34-4.33 3.77-16.35 13.73-26.32s16.07-12.84 19.82-9.38c1.41 1.31 4.31 4-1.2 11-2 1.82-4.06 3.77-6 5.75-4.5 4.5-10 10.71-13.77 17.13-3.16 2.59-8.53 5.86-12.57 1.82zm17.13 14.24c-4.66-4.66 3.89-17.4 14.44-28 1.58-1.58 3.67-3.67 5.94-5.67a3.49 3.49 0 0 0 .31-.25c3.75-3.26 7.93-6.2 11.12-6.2a3.78 3.78 0 0 1 2.85 1.25 6.3 6.3 0 0 1 2 4.7c0 7.3-10.13 17.31-14.44 21.58l-1 1-1.71 1.75c-4.14 4.25-11.06 11.35-16.11 11.35a4.63 4.63 0 0 1 -3.39-1.51zm47-11.82c-4 10-17.09 22.86-23.29 22.86a1.69 1.69 0 0 1 -1.45-.58c-2.85-3.28 1.91-12.31 11.58-22 4.34-4.33 8.61-6.92 11.43-6.92a3.25 3.25 0 0 1 2.41 1c.56.53.58 2.52-.67 5.64z"/><path d="m1094.47 995.3c0-16.25 25.52-34.76 37.79-43.66 2.66-1.93 4.76-3.45 6.16-4.62 8.42-7 26.12-11.13 47.36-11.13 16.39 0 29.92 7.56 38.39 13.89 10.62 8 44.17 8.09 47.87 8.1a3.73 3.73 0 0 0 0-7.45h-.36c-13.38 0-36.59-1.78-43-6.61-9.37-7-24.42-15.38-42.86-15.38-23.25 0-42.25 4.68-52.11 12.84-1.22 1-3.34 2.55-5.79 4.32-14.24 10.33-40.72 29.54-40.86 49.52-.17 2.1-1.38 20.31 6.85 29.33a15.47 15.47 0 0 0 11.89 5.15 13.33 13.33 0 0 0 10.08-3.95c5.36-5.63 4.88-15.61 4.49-23.64-.15-3.12-.36-7.4 0-8.33 4.34-5.59 13.74-13.85 20.13-13.85a3.73 3.73 0 1 0 0-7.45c-10.68 0-22.4 12.08-26 16.73-2.12 2.72-1.9 7.14-1.6 13.26s.72 14.82-2.44 18.13c-.67.7-1.88 1.64-4.69 1.64a8.1 8.1 0 0 1 -6.38-2.72c-5.26-5.75-5.33-19.14-4.92-23.81 0-.09 0-.2 0-.31z"/></g></g></svg>