<svg id="Layer_1" data-name="Layer 1" xmlns="http://www.w3.org/2000/svg" viewBox="0 0 425.85 437.48"><defs><style>.cls-1{fill:#4f4c4d;}.cls-2{fill:#241e1f;}.cls-3{fill:#eb2026;}.cls-4{fill:#fff;}</style></defs><title>rose-overlay</title><path class="cls-1" d="M2940.46,948.7c-5,.12-49,1.23-58,3.47-6.43,1.6-18.12-1.23-22.08-2.46a3.85,3.85,0,0,0-2.28,7.35c0.53,0.17,10.65,3.27,19.72,3.27a27.15,27.15,0,0,0,6.5-.69c7-1.72,43.06-2.93,56.38-3.25A3.85,3.85,0,0,0,2940.46,948.7Z" transform="translate(-2537.15 -654.79)"/><line class="cls-1" x1="284.99" y1="131.23" x2="287.58" y2="131.83"/><path class="cls-1" d="M2937.25,822.07a3.82,3.82,0,0,0,.21-1.37s0,0,0,0,0-.13-0.05-0.2a3.8,3.8,0,0,0-.28-1.11,3.69,3.69,0,0,0-.24-0.43,3.73,3.73,0,0,0-.24-0.45c-1.05-1.35-21.8-27.48-61.14-37.21A34.13,34.13,0,0,0,2887.19,756c0-14.73-9.36-24.54-13.93-28.46a30.26,30.26,0,0,0,2.28-10.57c0.35-10.5-4.7-21-13.83-28.83-6.6-5.65-14.78-8.38-22.57-9.59,0-.09,0-0.18-0.08-0.27-0.5-1-12.62-23.53-41.92-23.53-21.4,0-33.07,10.23-38,16a23.23,23.23,0,0,0-10.35-4.59c-10.34-1.79-21.32,3.07-29.37,13-12.11,14.89-11.5,31.67-10.71,38.09-10.83,6.93-20.9,18.31-20.9,36.74A56.46,56.46,0,0,0,2699,787.67c-27,11.17-44.61,35.93-45.56,37.28a3.78,3.78,0,0,0-.31.58c0,0.07-.07.12-0.1,0.19a3.81,3.81,0,0,0-.26,1.3s0,0.09,0,.14,0,0.1,0,.15a3.8,3.8,0,0,0,.25,1.29l0,0v0c0.56,1.38,9.47,22.18,34.45,34.55-15,4.33-32.13,8.28-54.5,8.28a3.85,3.85,0,0,0,0,7.7c28.93,0,49.29-6.25,67.25-11.77,13-4,24.29-7.46,36-7.46,24.27,0,36.44,12.41,36.63,12.61l8.09,8.08a3.85,3.85,0,1,0,5.44-5.44l-1.83-1.83v-59a1.9,1.9,0,1,1,3.79,0v56.16a3.85,3.85,0,0,0,7.7,0V854.71a49.3,49.3,0,0,0,10.4,8.39,3.85,3.85,0,0,0,4-6.58c-9.52-5.79-13.44-13-14.4-15V830.84l17.43-.78,8.41,26.69a3.85,3.85,0,1,0,7.35-2.32l-7.79-24.73,11.95-.53,13.86,24.78a3.85,3.85,0,1,0,6.72-3.76l-12-21.41,24.49-1.1,17.26,28.17c-1,.44-1.94.89-2.94,1.31a3.85,3.85,0,1,0,3,7.11c2.54-1.06,5-2.2,7.34-3.39,0.07,0,.14,0,0.2-0.09l0,0a134.15,134.15,0,0,0,45.37-37.71,3.74,3.74,0,0,0,.3-0.61A3.63,3.63,0,0,0,2937.25,822.07Zm-115.6-.08,16.69-35.86a35.69,35.69,0,0,1,7.08-.78,116.91,116.91,0,0,1,16.12,1.13l-27.81,35Zm-61.74-130.6a22.21,22.21,0,0,1,3-2.15c3.07,3.86,9.34,10.05,18.86,11.43a27,27,0,0,0,3.87.28c6.71,0,13.7-2.53,20.86-7.44-2.24,4.7-6.16,10.68-13.1,17.32a15.18,15.18,0,0,1-11.46,4.54c-10.68-.38-21.56-10.34-25.06-13.83,0.22-2,.49-4,0.82-6A9.1,9.1,0,0,1,2759.9,691.39Zm12.72-3.19a16.7,16.7,0,0,1,14.76-7.91c6,0,9,4.7,10.45,9.51-5.24,2.77-10.21,3.9-14.85,3.25A20.52,20.52,0,0,1,2772.62,688.2Zm-16.36,23.17c5.94,5,15.42,11.32,25.4,11.69a22.82,22.82,0,0,0,17.08-6.67c13.07-12.51,16.9-23.39,18-29.19,3.16,0.54,7.73,1.83,10.54,4.92,2,2.2,2.82,5,2.51,8.65-0.74,8.61-10.72,28.19-28,36.57-13.3,6.47-27.75,4.86-43-4.72A75.18,75.18,0,0,1,2756.26,711.37Zm29,37.52a45.39,45.39,0,0,0,19.93-4.63c19.2-9.33,30.9-30.33,32.21-42.31,6.89,5.62,18,18.21,18,41.15,0,16.65-5.2,28.7-15,34.85l-0.05.05a49.81,49.81,0,0,0-5.72,1.12c-0.09,0-.19,0-0.28.08a68,68,0,0,0-9.85,3.39l-1.39-.32c-0.07,0-.14,0-0.21,0s-0.15-.06-0.23-0.07c-0.35,0-34.93-4.25-53.88-29.44a58.94,58.94,0,0,1-5.62-9.08A52.69,52.69,0,0,0,2785.26,748.89ZM2870.17,788a112.6,112.6,0,0,1,15.33,4.53L2866.56,820l-22.63,1Zm22.61,7.54c3.58,1.62,6.93,3.34,10,5.11l-10,18.15-16.58.74Zm16.56,9.19a113.06,113.06,0,0,1,15.77,12.63l-23.31,1ZM2879.49,756c0,9.44-5.61,18.48-14.31,23.16a125.71,125.71,0,0,0-13-1.35c5.91-6.75,10.9-17.53,10.9-34.74,0-.69-0.07-1.32-0.09-2a37.61,37.61,0,0,0,6.4-6.69C2873.2,738,2879.49,745.52,2879.49,756Zm-11.64-39.28a23.44,23.44,0,0,1-5.77,14.51c-4.32-26.4-22.22-37.47-26-39.52a17.17,17.17,0,0,0-3.1-4.8,18.32,18.32,0,0,0-1.36-1.35c8.35,0.41,18,2.39,25.07,8.43C2864.05,700.31,2868.12,708.6,2867.85,716.75Zm-70.71-54.26a40.17,40.17,0,0,1,32.29,15.29,82.09,82.09,0,0,0-16.91,1.42c-0.1,0-.17.08-0.26,0.11a3.66,3.66,0,0,0-.4.11c-0.08,0-.14.1-0.22,0.14l-0.1.06a3.72,3.72,0,0,0-.64.41c-0.08.06-.17,0.09-0.24,0.16a71.51,71.51,0,0,1-6.23,5.34c-3.22-8.25-9.22-12.93-17.06-12.93-10.57,0-16.73,5.36-19.95,9.6a28.38,28.38,0,0,0-3-5.75C2767.88,672.14,2777.66,662.49,2797.15,662.49ZM2725.43,684c6.27-7.71,14.52-11.55,22.09-10.24a15.59,15.59,0,0,1,9.11,5.06l0.11,0.12a18.4,18.4,0,0,1,2.44,3.53,30.61,30.61,0,0,0-4.39,3.12,15.55,15.55,0,0,0-4.1,6.61,64.56,64.56,0,0,0-17.36,15.26,77.8,77.8,0,0,0-17.18,5.71C2715.85,706.63,2716.78,694.68,2725.43,684Zm-29.88,70c0-13.69,6.64-24.4,19.75-31.83a64.09,64.09,0,0,1,11.9-5.15,54.32,54.32,0,0,0-4.07,10.32c-4.61,16.68-1.22,35.24,10,55.25-2.62-.21-5.32-0.34-8.17-0.34a65.1,65.1,0,0,0-18.3,2.68C2699.33,775.51,2695.55,765.12,2695.55,754Zm66.33,102.89a67.28,67.28,0,0,0-19.06-4.35L2755.4,831h21.52v10.48c-1,2.07-4.93,9.49-15,15.4Zm-48.55-1.3,16.08-24.6h17.07L2734,852.34A93.91,93.91,0,0,0,2713.33,855.61Zm-14.47,4.2-1-.47a71.47,71.47,0,0,1-9.57-4.46L2704.64,831h15.57l-18,27.61c0,0.06,0,.14-0.08.21Zm16.82-69,6.89,32.52h-18.06l-16.25-21.07C2696.2,797,2705.48,792.54,2715.68,790.79Zm19.71-.23,12.25,32.74h-17.19L2723.39,790c0.53,0,1.07,0,1.6,0A94,94,0,0,1,2735.39,790.56Zm41.53,23.8v8.95h-21.06L2744.15,792c20,4.41,30.09,14.78,32.77,17.95v4.4ZM2682,806.74l12.78,16.57h-30.14A123.5,123.5,0,0,1,2682,806.74ZM2663.06,831h32.24l-13.58,19.77A69,69,0,0,1,2663.06,831Zm106.87,29.81a48.44,48.44,0,0,0,7-6.12v11.07A46.35,46.35,0,0,0,2769.94,860.82Zm16.58-56.06a9.5,9.5,0,0,0-3.37.64c-3-3.66-15.39-16.87-40.27-21.49-12.56-20.13-16.72-38.43-12.34-54.4,3.6-13.1,12.32-21.93,18.49-26.77a86.65,86.65,0,0,0,2.74,32.92,3.76,3.76,0,0,0,.2.68,67.32,67.32,0,0,0,10.62,21.09c15.12,20,38.28,27.91,50.66,30.83A145.11,145.11,0,0,0,2790,805.44,9.51,9.51,0,0,0,2786.51,804.76Zm9.6,9.6v-4c4-3.57,17.55-15,32.28-21.06L2813,822.37l-16.86.75v-8.77Zm79.22,12.94,17.92-.8L2905.52,843a121.23,121.23,0,0,1-14.78,9.46Zm36.22,10.9-9-12.11,22.59-1A134.8,134.8,0,0,1,2911.56,838.19Z" transform="translate(-2537.15 -654.79)"/><path class="cls-1" d="M2695.72,971.06c-22.63-29.13-61.77-21.66-63.42-21.34a3.85,3.85,0,1,0,1.51,7.55c0.36-.07,36.09-6.89,55.83,18.51a50,50,0,0,0,5.78,6.22,3.85,3.85,0,0,0,5.19-5.69A42.13,42.13,0,0,1,2695.72,971.06Z" transform="translate(-2537.15 -654.79)"/><path class="cls-1" d="M2858.86,947.59l-1-1-50.47-50.46a3.85,3.85,0,1,0-5.44,5.44L2852.37,952l1.1,1.09c4,3.87,14.48,14.17,14.52,21.9a6.52,6.52,0,0,1-2.08,4.9,9.56,9.56,0,0,1-6.76,3c-5.31-.06-10.3-4.61-11.37-5.65-2.22-2.31-4.47-4.31-6.21-5.85-0.76-.68-1.39-1.22-1.77-1.61l-16.64-16.64-5.44,5.44,16.64,16.64c0.47,0.47,1.2,1.13,2.12,1.93,3.59,3.17,12,10.59,12.16,16.2a4.87,4.87,0,0,1-1.63,3.73,7.18,7.18,0,0,1-5.54,2.5c-4-.18-8-4-9.18-5.46l0,0a41,41,0,0,0-3.73-4.3l-20-20-5.44,5.44,20,20c3.26,3.26,5.24,6.23,5.87,8.83s-0.1,4.78-2.38,7.06c-3.8,3.79-9.45,1.06-11.37-.05a21.93,21.93,0,0,0-3.38-4.43c-4.65-4.65-16.58-18.09-16.7-18.22a3.85,3.85,0,1,0-5.76,5.11c0.5,0.56,12.2,13.74,17,18.56a12.86,12.86,0,0,1,3.71,6.83,7.11,7.11,0,0,1-2.17,6.5,3.89,3.89,0,0,1-2.79,1.1c-2.58,0-8.67-1.85-20.34-13.9a3.85,3.85,0,0,0-5.53,5.36c10.54,10.88,19,16.19,25.81,16.24h0.1a11.33,11.33,0,0,0,8.19-3.36,14.9,14.9,0,0,0,4.5-10.58,18.64,18.64,0,0,0,4,.46,13.93,13.93,0,0,0,10.17-4.17,15.23,15.23,0,0,0,4.82-10.18,15.52,15.52,0,0,0,4.21.87l0.69,0a15,15,0,0,0,10.7-4.77,12.54,12.54,0,0,0,3.88-9.41,14.21,14.21,0,0,0-.41-2.87,17.61,17.61,0,0,0,3.1.34h0.24a16.72,16.72,0,0,0,12.1-5.29A14.13,14.13,0,0,0,2875.7,975C2875.64,964,2863.88,952.5,2858.86,947.59Z" transform="translate(-2537.15 -654.79)"/><path class="cls-1" d="M2779,992.62a14.06,14.06,0,0,0-3.51.52,21.36,21.36,0,0,0,2.36-9.07,14.12,14.12,0,0,0-4.32-10.32,11.67,11.67,0,0,0-8.41-3.56,16,16,0,0,0-6.14,1.35,13.39,13.39,0,0,0-4.58-9.45c-6.14-5.67-13.22-3.82-19.35,0,0-.34.06-0.68,0.05-1a10.88,10.88,0,0,0-3.39-7.94,9.87,9.87,0,0,0-6.9-2.84c-6.5,0-12.56,6.11-17.44,11l-1,1a75.39,75.39,0,0,0-10.93,13.54c-5.83,9.8-3.52,15.38-.56,18.34a10.48,10.48,0,0,0,7.51,3.22,12.3,12.3,0,0,0,3.82-.71c-1.38,5-.94,9.69,2.79,13.42a13.71,13.71,0,0,0,9.91,4.22,16.14,16.14,0,0,0,4.33-.64,12.54,12.54,0,0,0,3.47,11.14,12.34,12.34,0,0,0,9,3.85h0c3.88,0,7.72-1.79,11.26-4.26-0.83,3.9-.32,7.65,2.43,10.82a9.4,9.4,0,0,0,7.31,3.25h0c11.29,0,26.72-17.26,31.21-28.45,3.16-7.88,1.14-12.1-1.12-14.26A11.11,11.11,0,0,0,2779,992.62Zm-78.63-3.91c-2-2,.24-6.46,1.73-9a67.72,67.72,0,0,1,9.76-12l1-1c3.25-3.27,8.68-8.74,12-8.74a2.14,2.14,0,0,1,1.59.71,3.18,3.18,0,0,1,1,2.45c0.06,4.74-5.69,12.64-11.42,18.36l-1.37,1.4c-3,3.06-8.54,8.77-12.18,8.76A2.75,2.75,0,0,1,2700.36,988.71Zm14.13,15.94c-4.48-4.48,3.9-16.89,14.19-27.2s16.61-13.27,20.48-9.7c1.46,1.35,4.45,4.14-1.24,11.32-2.11,1.88-4.2,3.9-6.25,5.94-4.65,4.65-10.37,11.07-14.24,17.71C2724.21,1005.44,2718.67,1008.82,2714.49,1004.64Zm17.71,14.72c-4.82-4.82,4-18,14.93-28.9,1.64-1.63,3.8-3.79,6.14-5.86a3.6,3.6,0,0,0,.32-0.26l0,0c3.87-3.37,8.2-6.41,11.5-6.41a3.91,3.91,0,0,1,2.95,1.29,6.51,6.51,0,0,1,2.07,4.86c0,7.54-10.47,17.89-14.93,22.31l-1.08,1.07-1.77,1.8c-4.28,4.39-11.44,11.73-16.65,11.73A4.79,4.79,0,0,1,2732.2,1019.36Zm48.58-12.21c-4.16,10.38-17.66,23.63-24.07,23.62a1.74,1.74,0,0,1-1.5-.6c-2.95-3.39,2-12.72,12-22.7,4.48-4.48,8.9-7.15,11.82-7.15a3.36,3.36,0,0,1,2.49,1C2782,1001.87,2782.07,1003.92,2780.77,1007.15Z" transform="translate(-2537.15 -654.79)"/><path class="cls-1" d="M2757,918.64c0-16.79,26.38-35.93,39.06-45.12,2.75-2,4.92-3.57,6.37-4.77,8.71-7.2,27-11.51,48.95-11.51,16.94,0,30.93,7.81,39.68,14.36,11,8.23,45.66,8.36,49.47,8.37a3.85,3.85,0,0,0,0-7.7h-0.37c-13.83,0-37.82-1.84-44.48-6.83-9.69-7.25-25.24-15.9-44.29-15.9-24,0-43.66,4.84-53.85,13.27-1.26,1-3.45,2.63-6,4.47-14.72,10.68-42.09,30.53-42.24,51.19-0.18,2.17-1.43,21,7.08,30.31a16,16,0,0,0,12.29,5.32,13.78,13.78,0,0,0,10.42-4.08c5.54-5.82,5-16.14,4.64-24.43-0.16-3.23-.37-7.65,0-8.61,4.49-5.77,14.2-14.32,20.81-14.32a3.85,3.85,0,0,0,0-7.7c-11,0-23.15,12.48-26.89,17.29-2.19,2.81-2,7.38-1.66,13.71s0.74,15.31-2.52,18.74c-0.69.72-1.95,1.69-4.85,1.69a8.37,8.37,0,0,1-6.6-2.81c-5.44-5.95-5.51-19.78-5.08-24.61C2757,918.87,2757,918.76,2757,918.64Z" transform="translate(-2537.15 -654.79)"/><g id="_Group_" data-name="&lt;Group&gt;"><g id="_Group_2" data-name="&lt;Group&gt;"><path id="_Path_" data-name="&lt;Path&gt;" class="cls-2" d="M2956.45,999.8c-5.68.06-95-6.24-105.34-3.83-7.33,1.73-20.59-1.68-25.08-3.13a4.38,4.38,0,0,0-2.71,8.33c0.6,0.19,12.07,3.88,22.39,4a30.93,30.93,0,0,0,7.41-.69c8-1.86,88.27,4.22,103.44,4.06a4.38,4.38,0,0,0-.1-8.76h0Z" transform="translate(-2537.15 -654.79)"/><line id="_Path_2" data-name="&lt;Path&gt;" class="cls-3" x1="374.21" y1="192.53" x2="213.28" y2="197.59"/><line id="_Path_3" data-name="&lt;Path&gt;" class="cls-3" x1="240.3" y1="195.52" x2="263.31" y2="147.76"/><line id="_Path_4" data-name="&lt;Path&gt;" class="cls-3" x1="262.67" y1="196.04" x2="300.83" y2="149.34"/><line id="_Path_5" data-name="&lt;Path&gt;" class="cls-3" x1="300.23" y1="194.86" x2="326.71" y2="157.55"/><line id="_Path_6" data-name="&lt;Path&gt;" class="cls-3" x1="330.38" y1="193.91" x2="345.39" y2="167.5"/><line id="_Path_7" data-name="&lt;Path&gt;" class="cls-3" x1="330.38" y1="193.91" x2="347.99" y2="218.25"/><line id="_Path_8" data-name="&lt;Path&gt;" class="cls-3" x1="300.23" y1="194.86" x2="323.27" y2="233.61"/><line id="_Path_9" data-name="&lt;Path&gt;" class="cls-3" x1="262.67" y1="196.04" x2="279.36" y2="226.82"/><line id="_Path_10" data-name="&lt;Path&gt;" class="cls-3" x1="240.3" y1="195.52" x2="250.8" y2="230.45"/><line id="_Path_11" data-name="&lt;Path&gt;" class="cls-3" x1="58.99" y1="195.55" x2="200.21" y2="197.42"/><line id="_Path_12" data-name="&lt;Path&gt;" class="cls-3" x1="168.82" y1="197" x2="152.35" y2="151.11"/><line id="_Path_13" data-name="&lt;Path&gt;" class="cls-3" x1="139.4" y1="196.61" x2="130.21" y2="150.22"/><line id="_Path_14" data-name="&lt;Path&gt;" class="cls-3" x1="111.29" y1="196.24" x2="89.06" y2="166.62"/><line id="_Path_15" data-name="&lt;Path&gt;" class="cls-3" x1="111.29" y1="196.24" x2="88.23" y2="228.88"/><line id="_Path_16" data-name="&lt;Path&gt;" class="cls-3" x1="139.4" y1="196.61" x2="113.94" y2="234.48"/><line id="_Path_17" data-name="&lt;Path&gt;" class="cls-3" x1="168.82" y1="197" x2="149.17" y2="229.69"/><line id="_Path_18" data-name="&lt;Path&gt;" class="cls-3" x1="247.9" y1="151.24" x2="250.83" y2="151.96"/><path class="cls-4" d="M2886,866.74l-10.07-13.92,25.71-.81A153.74,153.74,0,0,1,2886,866.74h0Zm-41-12.95,20.4-.64L2879,872.1a137.84,137.84,0,0,1-17,10.54l-17.15-28.84h0ZM2755,837.88l0.06-4.6c4.63-4,20.2-16.78,37-23.47l-18,37.45-19.2.6,0.13-10h0Zm-10.77-11.06a10.8,10.8,0,0,0-3.85.68c-3.35-4.21-17.26-19.43-45.49-25.06-14-23.09-18.44-44-13.21-62.08,4.29-14.85,14.35-24.76,21.44-30.17a98.6,98.6,0,0,0,2.62,37.5,4.28,4.28,0,0,0,.22.78,76.6,76.6,0,0,0,11.76,24.15c16.9,23,43.13,32.34,57.18,35.84a165.18,165.18,0,0,0-26.69,19.19,10.83,10.83,0,0,0-4-.83h0Zm-19.71,63.53a55.24,55.24,0,0,0,8-6.85l-0.17,12.59a53,53,0,0,0-7.87-5.74h0Zm-121.14-35.53,36.68,0.49-15.74,22.28a78.48,78.48,0,0,1-20.93-22.77h0Zm21.91-27.32,14.29,19-34.29-.46a140.54,140.54,0,0,1,20-18.59h0Zm107.87,10.1L2733,847.77l-24-.32-12.85-35.79c22.66,5.31,34,17.27,37,20.91l-0.07,5h0Zm-46.89-27.7,13.44,37.44-19.56-.26-7.53-38c0.61,0,1.21,0,1.83,0a107,107,0,0,1,11.82.82h0Zm-22.42,0,7.35,37.1-20.55-.27-18.17-24.21c9.12-5.87,19.75-10.77,31.37-12.61h0Zm-20.18,78.28-1.17-.56a80.86,80.86,0,0,1-10.82-5.22l19-26.91,17.71,0.24-20.95,31.15c0,0.07-.05.16-0.1,0.23l-3.68,1.07h0Zm16.53-4.57,18.66-27.75,19.42,0.26-14.48,24.08a107,107,0,0,0-23.6,3.41h0Zm55.21,2.22a76.67,76.67,0,0,0-21.62-5.23l14.64-24.34,24.49,0.32-0.16,11.93c-1.12,2.34-5.75,10.72-17.32,17.3l0,0h0Zm-73.91-118.06c0.21-15.58,7.93-27.66,23-35.92a72.9,72.9,0,0,1,13.62-5.68,61.82,61.82,0,0,0-4.79,11.68c-5.5,18.9-1.92,40.07,10.57,63-3-.27-6.05-0.47-9.29-0.51a74.08,74.08,0,0,0-20.86,2.77c-8.23-10.86-12.37-22.73-12.21-35.36h0Zm35-79.17c7.25-8.68,16.7-12.92,25.28-11.32a17.74,17.74,0,0,1,10.29,5.89s0.09,0.09.12,0.13a20.92,20.92,0,0,1,2.72,4.05,34.8,34.8,0,0,0-5,3.49,17.69,17.69,0,0,0-4.76,7.46,73.46,73.46,0,0,0-20,17.1,88.53,88.53,0,0,0-19.63,6.24c-0.24-7.51,1-21.08,11-33.05h0Zm81.92-23.44c20,0.27,31.47,11.33,36.51,17.88a93.37,93.37,0,0,0-19.26,1.36c-0.11,0-.19.09-0.3,0.12a4.24,4.24,0,0,0-.46.12c-0.09,0-.16.11-0.25,0.16l-0.12.07a4.18,4.18,0,0,0-.73.45c-0.09.07-.2,0.1-0.28,0.17a81.36,81.36,0,0,1-7.16,6c-3.54-9.44-10.29-14.85-19.22-15-12-.16-19.11,5.85-22.84,10.63a32.27,32.27,0,0,0-3.27-6.58c3.94-4.86,15.21-15.69,37.38-15.39h0Zm79.62,62.8a26.67,26.67,0,0,1-6.78,16.42c-4.52-30.1-24.72-43-29-45.35a19.56,19.56,0,0,0-3.45-5.5,20.3,20.3,0,0,0-1.53-1.56c9.49,0.6,20.47,3,28.4,10,8.27,7.27,12.77,16.76,12.34,26h0Zm12.65,44.87c-0.14,10.74-6.67,20.94-16.64,26.13a142.91,142.91,0,0,0-14.79-1.73c6.83-7.59,12.66-19.78,12.92-39.36,0-.79-0.06-1.5-0.07-2.27a42.85,42.85,0,0,0,7.38-7.52c4.3,4.15,11.34,12.77,11.19,24.73h0ZM2884,828.63a129,129,0,0,1,17.76,14.61l-26.53.84,8.78-15.45h0Zm-18.71-10.7c4,1.9,7.83,3.9,11.32,6l-11.65,20.5-18.88.59,19.21-27.06h0ZM2839.65,809a128.11,128.11,0,0,1,17.38,5.39l-22,30.94-25.76.81L2839.65,809h0Zm-96-45.77a51.65,51.65,0,0,0,22.75-5c22-10.32,35.62-34,37.29-47.65,7.75,6.5,20.16,21,19.81,47.09-0.25,18.94-6.35,32.57-17.65,39.42l-0.06.06a56.6,56.6,0,0,0-6.52,1.19c-0.11,0-.22,0-0.32.08a77.52,77.52,0,0,0-11.26,3.71l-1.58-.39c-0.08,0-.16,0-0.23,0s-0.17-.07-0.26-0.08c-0.4,0-39.67-5.37-60.86-34.31a67.1,67.1,0,0,1-6.26-10.42,60,60,0,0,0,25.16,6.27h0Zm-32.42-43.13c6.69,5.74,17.38,13.12,28.73,13.68a26,26,0,0,0,19.54-7.33c15.06-14,19.58-26.36,20.92-32.94,3.58,0.66,8.77,2.2,11.92,5.76,2.24,2.53,3.13,5.77,2.72,9.88-1,9.78-12.62,31.91-32.38,41.19-15.23,7.16-31.65,5.11-48.81-6a85.53,85.53,0,0,1-2.63-24.22h0Zm19-26.11c2-3.16,7-8.9,16.91-8.77,6.8,0.09,10.11,5.49,11.75,11-6,3.07-11.67,4.29-16.94,3.48a23.35,23.35,0,0,1-11.71-5.68h0Zm-14.52,3.44a25.26,25.26,0,0,1,3.49-2.4c3.43,4.43,10.48,11.58,21.29,13.29a30.67,30.67,0,0,0,4.4.37c7.64,0.1,15.62-2.67,23.85-8.15-2.62,5.31-7.18,12.06-15.17,19.51a17.28,17.28,0,0,1-13.11,5c-12.14-.6-24.37-12.09-28.3-16.11,0.28-2.23.61-4.49,1-6.79a10.35,10.35,0,0,1,2.52-4.7h0Zm68.27,149.52,19.53-40.55a40.59,40.59,0,0,1,8.07-.78,133,133,0,0,1,18.32,1.52l-32.17,39.37-13.75.43h0Zm131.52,1.84a4.36,4.36,0,0,0,.26-1.55,0.24,0.24,0,0,0,0,0c0-.08,0-0.15-0.05-0.24a4.28,4.28,0,0,0-.3-1.26,4,4,0,0,0-.26-0.5,3.88,3.88,0,0,0-.27-0.51c-1.18-1.56-24.39-31.6-69-43.26a38.83,38.83,0,0,0,13.66-28.53c0.22-16.76-10.28-28.06-15.41-32.59a34.49,34.49,0,0,0,2.75-12c0.55-11.94-5-24-15.3-33-7.42-6.52-16.69-9.76-25.54-11.25,0-.1,0-0.21-0.08-0.31-0.56-1.1-14-27-47.33-27.4-24.35-.32-37.78,11.14-43.45,17.65a26.43,26.43,0,0,0-11.7-5.38c-11.73-2.2-24.3,3.17-33.61,14.32-14,16.76-13.56,35.86-12.75,43.18-12.42,7.72-24.05,20.52-24.33,41.49-0.18,13.73,3.93,26.63,12.23,38.44-30.85,12.3-51.3,40.21-52.39,41.73a4.31,4.31,0,0,0-.36.65c0,0.07-.08.14-0.12,0.21a4.35,4.35,0,0,0-.32,1.48c0,0.06,0,.1,0,0.16s0,0.11,0,.17a4.33,4.33,0,0,0,.26,1.47l0,0.05v0c0.62,1.59,10.44,25.38,38.67,39.83-17.08,4.71-62.53,8.59-88,8.25a4.38,4.38,0,0,0-.12,8.76c32.91,0.44,82-6,102.54-12,14.89-4.36,27.75-8.12,41.07-7.95,27.61,0.37,41.27,14.67,41.48,14.9l9.08,9.32a4.38,4.38,0,1,0,6.28-6.11l-2.05-2.11,0.47-35.39,0.42-31.76a2.16,2.16,0,1,1,4.31.06l-0.42,31.76-0.43,32.13a4.38,4.38,0,0,0,8.76.12l0.24-18a56.08,56.08,0,0,0,11.7,9.7,4.38,4.38,0,1,0,4.65-7.43c-10.75-6.73-15.1-15-16.15-17.33l0.16-12.1,19.84-.63,9.16,30.49a4.38,4.38,0,0,0,4.14,3.12,4.37,4.37,0,0,0,4.25-5.64l-8.49-28.25,13.6-.43,15.4,28.4a4.38,4.38,0,1,0,7.7-4.18L2807.06,855l27.87-.87,19.21,32.31c-1.12.49-2.22,1-3.37,1.45A4.38,4.38,0,0,0,2854,896c2.91-1.16,5.68-2.43,8.4-3.74,0.07,0,.15-0.05.23-0.1l0,0c32.59-15.85,51.34-41.06,52.18-42.21a4.35,4.35,0,0,0,.35-0.69,4.75,4.75,0,0,0,.22-0.44h0Z" transform="translate(-2537.15 -654.79)"/><path id="_Path_19" data-name="&lt;Path&gt;" class="cls-4" d="M2638.42,1014.65c-25.31-33.49-95.8-25.92-97.69-25.58a4.38,4.38,0,1,0,1.61,8.61c0.41-.07,67-7,89.09,22.25a56.68,56.68,0,0,0,6.48,7.17,4.38,4.38,0,0,0,6-6.39,48,48,0,0,1-5.48-6.06h0Z" transform="translate(-2537.15 -654.79)"/><path id="_Path_20" data-name="&lt;Path&gt;" class="cls-4" d="M2824.38,990.41l-1.18-1.19L2766.54,931a4.38,4.38,0,0,0-6.27,6.11c23.23,23.87,53.86,55.31,56.66,58.18l1.24,1.25c4.44,4.47,16.26,16.33,16.19,25.14a7.42,7.42,0,0,1-2.44,5.54,10.86,10.86,0,0,1-7.73,3.35c-6-.15-11.65-5.4-12.85-6.6-2.49-2.67-5-5-7-6.75-0.86-.78-1.56-1.42-2-1.86l-18.68-19.19-6.28,6.11,18.69,19.19c0.52,0.54,1.35,1.3,2.38,2.23,4,3.66,13.48,12.23,13.59,18.61a5.55,5.55,0,0,1-1.92,4.22c-2,2-4.13,2.92-6.34,2.76-4.51-.27-9-4.68-10.36-6.35l0,0a46.56,46.56,0,0,0-4.18-4.95l-22.48-23.1-6.27,6.11,22.48,23.1c3.66,3.75,5.87,7.17,6.55,10.13s-0.18,5.44-2.81,8c-4.37,4.26-10.77,1.06-12.93-.23A24.93,24.93,0,0,0,2770,1057c-5.22-5.37-18.6-20.83-18.73-21a4.38,4.38,0,1,0-6.63,5.73c0.55,0.64,13.67,15.82,19.08,21.37a14.66,14.66,0,0,1,4.11,7.82,8.1,8.1,0,0,1-2.57,7.36,4.42,4.42,0,0,1-3.19,1.21c-2.94-.06-9.83-2.24-22.93-16.13a4.38,4.38,0,0,0-6.37,6c11.83,12.53,21.35,18.71,29.12,18.87H2762a12.89,12.89,0,0,0,9.37-3.7,16.94,16.94,0,0,0,5.28-12,21.28,21.28,0,0,0,4.53.59,15.85,15.85,0,0,0,11.63-4.59,17.34,17.34,0,0,0,5.63-11.51,17.73,17.73,0,0,0,4.78,1.06l0.78,0a17.09,17.09,0,0,0,12.25-5.26,14.28,14.28,0,0,0,4.56-10.65,16.17,16.17,0,0,0-.43-3.27,20.18,20.18,0,0,0,3.53.43h0.27a19,19,0,0,0,13.84-5.84,16.07,16.07,0,0,0,5.09-11.75c0.1-12.46-13.1-25.72-18.74-31.39h0Z" transform="translate(-2537.15 -654.79)"/><path class="cls-2" d="M2734.64,1057c-4.89,11.74-20.45,26.61-27.74,26.51a2,2,0,0,1-1.7-.71c-3.3-3.9,2.44-14.44,14-25.64,5.17-5,10.24-8,13.55-8a3.82,3.82,0,0,1,2.82,1.18c0.64,0.63.63,3-.89,6.61h0Zm-55.45,13.16c-5.41-5.55,4.85-20.4,17.42-32.65,1.89-1.84,4.38-4.26,7.08-6.58a3.61,3.61,0,0,0,.36-0.29l0,0c4.46-3.77,9.42-7.16,13.18-7.11a4.45,4.45,0,0,1,3.33,1.51,7.41,7.41,0,0,1,2.29,5.56c-0.14,8.58-12.18,20.19-17.32,25.15l-1.24,1.2-2,2c-4.93,4.93-13.19,13.18-19.12,13.1a5.44,5.44,0,0,1-4-1.87h0Zm-19.92-17c-5-5.16,4.69-19.16,16.56-30.73s19.1-14.85,23.45-10.72c1.64,1.56,5,4.78-1.58,12.86-2.43,2.11-4.84,4.37-7.2,6.67-5.36,5.22-12,12.44-16.46,19.93-3.71,3-10.07,6.81-14.76,2h0Zm-15.84-18.35c-2.2-2.26.37-7.34,2.11-10.17a77,77,0,0,1,11.28-13.54L2658,1010c3.74-3.67,10-9.81,13.76-9.76a2.43,2.43,0,0,1,1.8.83,3.62,3.62,0,0,1,1.1,2.81c0,5.39-6.67,14.29-13.27,20.72l-1.58,1.57c-3.44,3.44-9.85,9.84-14,9.79a3.12,3.12,0,0,1-2.34-1.13h0Zm89.4,5.64a16.12,16.12,0,0,0-4,.53,24.3,24.3,0,0,0,2.82-10.28,16.06,16.06,0,0,0-4.75-11.8,13.27,13.27,0,0,0-9.51-4.18,18.22,18.22,0,0,0-7,1.44,15.22,15.22,0,0,0-5.07-10.82c-6.89-6.55-15-4.55-22-.32,0-.38.07-0.77,0.07-1.15a12.38,12.38,0,0,0-3.74-9.08,11.23,11.23,0,0,0-7.8-3.33c-7.39-.1-14.39,6.76-20,12.27l-1.11,1.09a85.81,85.81,0,0,0-12.64,15.24c-6.78,11.06-4.23,17.45-.91,20.86a11.93,11.93,0,0,0,8.5,3.78,14,14,0,0,0,4.36-.75c-1.65,5.63-1.22,11,3,15.31a15.6,15.6,0,0,0,11.21,5,18.37,18.37,0,0,0,4.93-.66c-0.7,4.67.23,9.07,3.78,12.72a14,14,0,0,0,10.13,4.52h0c4.42,0.06,8.8-1.92,12.87-4.67-1,4.43-.48,8.7,2.6,12.35a10.7,10.7,0,0,0,8.27,3.81h0c12.85,0.17,30.66-19.24,35.94-31.9,3.71-8.91,1.48-13.75-1.06-16.24a12.64,12.64,0,0,0-8.84-3.69h0Z" transform="translate(-2537.15 -654.79)"/><path id="_Path_21" data-name="&lt;Path&gt;" class="cls-2" d="M2709,955.93c0.25-19.1,30.56-40.48,45.12-50.75,3.16-2.23,5.65-4,7.32-5.33,10-8.07,30.89-12.68,55.86-12.35,19.27,0.26,35.07,9.35,44.93,16.94,12.37,9.53,92,19.36,96.37,19.42a4.38,4.38,0,0,0,.11-8.76h-0.42c-15.73-.21-83.21-11.81-90.72-17.6-10.92-8.4-28.48-18.47-50.16-18.76-27.35-.36-49.75,4.84-61.47,14.29-1.46,1.17-4,2.94-6.88,5-16.91,11.93-48.34,34.1-48.82,57.6-0.23,2.48-1.94,23.87,7.59,34.59a18.19,18.19,0,0,0,13.9,6.24c4.94,0.07,8.94-1.44,11.92-4.48,6.4-6.54,6-18.29,5.65-27.72-0.13-3.68-.31-8.7.18-9.79,5.19-6.5,16.37-16.07,23.89-16a4.38,4.38,0,0,0,.12-8.76c-12.55-.17-26.53,13.85-30.85,19.26-2.53,3.16-2.35,8.36-2.09,15.57,0.26,7.36.61,17.44-3.15,21.29-0.8.81-2.24,1.89-5.54,1.85a9.52,9.52,0,0,1-7.46-3.29c-6.1-6.85-6-22.59-5.41-28.07,0-.13,0-0.26,0-0.39h0Z" transform="translate(-2537.15 -654.79)"/></g></g></svg>