<?xml version="1.0" encoding="utf-8"?>
<!-- Generator: Adobe Illustrator 19.2.1, SVG Export Plug-In . SVG Version: 6.00 Build 0)  -->
<!DOCTYPE svg PUBLIC "-//W3C//DTD SVG 1.1//EN" "http://www.w3.org/Graphics/SVG/1.1/DTD/svg11.dtd">
<svg version="1.1" id="Layer_1" xmlns="http://www.w3.org/2000/svg" xmlns:xlink="http://www.w3.org/1999/xlink" x="0px" y="0px"
	 viewBox="0 0 425.9 437.5" style="enable-background:new 0 0 425.9 437.5;" xml:space="preserve">
<style type="text/css">
	.st0{fill:none;}
	.st1{fill:#241E1F;}
	.st2{fill:#FFFFFF;}
</style>
<title>rose-overlay</title>
<line class="st0" x1="285" y1="131.2" x2="287.6" y2="131.8"/>
<g id="_Group_">
	<g id="_Group_2">
		<path id="_Path_" class="st1" d="M419.3,345c-5.7,0.1-95-6.2-105.3-3.8c-7.3,1.7-20.6-1.7-25.1-3.1c-2.3-0.7-4.8,0.5-5.5,2.9
			c-0.7,2.3,0.5,4.7,2.8,5.5c0.6,0.2,12.1,3.9,22.4,4c2.5,0.1,5-0.2,7.4-0.7c8-1.9,88.3,4.2,103.4,4.1c2.4,0,4.4-2,4.3-4.4
			C423.7,346.9,421.7,345,419.3,345L419.3,345L419.3,345L419.3,345z"/>
		<line id="_Path_2" class="st0" x1="374.2" y1="192.5" x2="213.3" y2="197.6"/>
		<line id="_Path_3" class="st0" x1="240.3" y1="195.5" x2="263.3" y2="147.8"/>
		<line id="_Path_4" class="st0" x1="262.7" y1="196" x2="300.8" y2="149.3"/>
		<line id="_Path_5" class="st0" x1="300.2" y1="194.9" x2="326.7" y2="157.6"/>
		<line id="_Path_6" class="st0" x1="330.4" y1="193.9" x2="345.4" y2="167.5"/>
		<line id="_Path_7" class="st0" x1="330.4" y1="193.9" x2="348" y2="218.2"/>
		<line id="_Path_8" class="st0" x1="300.2" y1="194.9" x2="323.3" y2="233.6"/>
		<line id="_Path_9" class="st0" x1="262.7" y1="196" x2="279.4" y2="226.8"/>
		<line id="_Path_10" class="st0" x1="240.3" y1="195.5" x2="250.8" y2="230.4"/>
		<line id="_Path_11" class="st0" x1="59" y1="195.6" x2="200.2" y2="197.4"/>
		<line id="_Path_12" class="st0" x1="168.8" y1="197" x2="152.4" y2="151.1"/>
		<line id="_Path_13" class="st0" x1="139.4" y1="196.6" x2="130.2" y2="150.2"/>
		<line id="_Path_14" class="st0" x1="111.3" y1="196.2" x2="89.1" y2="166.6"/>
		<line id="_Path_15" class="st0" x1="111.3" y1="196.2" x2="88.2" y2="228.9"/>
		<line id="_Path_16" class="st0" x1="139.4" y1="196.6" x2="113.9" y2="234.5"/>
		<line id="_Path_17" class="st0" x1="168.8" y1="197" x2="149.2" y2="229.7"/>
		<line id="_Path_18" class="st0" x1="247.9" y1="151.2" x2="250.8" y2="152"/>
		<path class="st2" d="M348.9,212L338.8,198l25.7-0.8C359.6,202.5,354.4,207.4,348.9,212L348.9,212z M307.9,199l20.4-0.6l13.6,19
			c-5.4,3.9-11.1,7.4-17,10.5L307.7,199l0,0L307.9,199z M217.9,183.1l0.1-4.6c4.6-4,20.2-16.8,37-23.5l-18,37.5l-19.2,0.6
			L217.9,183.1L217.9,183.1L217.9,183.1z M207.1,172c-1.3,0-2.6,0.2-3.9,0.7c-3.4-4.2-17.3-19.4-45.5-25.1
			c-14-23.1-18.4-44-13.2-62.1c4.3-14.8,14.4-24.8,21.4-30.2c-1.5,12.6-0.7,25.3,2.6,37.5c0,0.3,0.1,0.5,0.2,0.8
			c2.5,8.7,6.4,16.9,11.8,24.2c16.9,23,43.1,32.3,57.2,35.8c-9.5,5.5-18.5,11.9-26.7,19.2C209.8,172.3,208.4,172.1,207.1,172
			L207.1,172L207.1,172z M187.4,235.6c2.9-2,5.6-4.3,8-6.8l-0.2,12.6C192.8,239.1,190.1,237.2,187.4,235.6L187.4,235.6L187.4,235.6z
			 M66.2,200l36.7,0.5l-15.7,22.3C78.8,216.7,71.6,208.9,66.2,200L66.2,200L66.2,200z M88.1,172.7l14.3,19l-34.3-0.5
			C74.2,184.4,80.9,178.2,88.1,172.7L88.1,172.7L88.1,172.7z M196,182.8l-0.2,10.2l-24-0.3L159,156.9c22.7,5.3,34,17.3,37,20.9
			L196,182.8L196,182.8L196,182.8z M149.1,155.1l13.4,37.4l-19.6-0.3l-7.5-38c0.6,0,1.2,0,1.8,0
			C141.3,154.3,145.2,154.6,149.1,155.1L149.1,155.1z M126.7,155.1l7.4,37.1l-20.6-0.3l-18.2-24.2
			C104.5,161.9,115.1,157,126.7,155.1L126.7,155.1L126.7,155.1z M106.5,233.4l-1.2-0.6c-3.7-1.5-7.3-3.2-10.8-5.2l19-26.9l17.7,0.2
			l-20.9,31.2c0,0.1-0.1,0.2-0.1,0.2L106.5,233.4L106.5,233.4L106.5,233.4z M123.1,228.8l18.7-27.8l19.4,0.3l-14.5,24.1
			C138.7,225.7,130.8,226.8,123.1,228.8L123.1,228.8L123.1,228.8z M178.3,231c-6.9-2.8-14.2-4.5-21.6-5.2l14.6-24.3l24.5,0.3
			l-0.2,11.9C194.5,216.1,189.9,224.4,178.3,231L178.3,231L178.3,231L178.3,231z M104.4,113c0.2-15.6,7.9-27.7,23-35.9
			c4.3-2.3,8.9-4.3,13.6-5.7c-2,3.7-3.6,7.6-4.8,11.7c-5.5,18.9-1.9,40.1,10.6,63c-3-0.3-6.1-0.5-9.3-0.5c-7-0.1-14.1,0.9-20.9,2.8
			C108.4,137.5,104.2,125.6,104.4,113L104.4,113L104.4,113z M139.4,33.8c7.2-8.7,16.7-12.9,25.3-11.3c4,0.7,7.6,2.8,10.3,5.9
			c0,0,0.1,0.1,0.1,0.1c1.1,1.2,2,2.6,2.7,4c-1.8,1-3.4,2.2-5,3.5c-2.2,2-3.8,4.6-4.8,7.5c-7.6,4.4-14.4,10.2-20,17.1
			c-6.8,1.3-13.4,3.4-19.6,6.2C128.1,59.3,129.4,45.8,139.4,33.8L139.4,33.8L139.4,33.8z M221.3,10.4c20,0.3,31.5,11.3,36.5,17.9
			c-6.4-0.2-12.9,0.2-19.3,1.4c-0.1,0-0.2,0.1-0.3,0.1c-0.2,0-0.3,0.1-0.5,0.1c-0.1,0-0.2,0.1-0.2,0.2l-0.1,0.1
			c-0.3,0.1-0.5,0.3-0.7,0.5c-0.1,0.1-0.2,0.1-0.3,0.2c-2.3,2.1-4.7,4.1-7.2,6c-3.5-9.4-10.3-14.8-19.2-15
			c-12-0.2-19.1,5.8-22.8,10.6c-0.8-2.3-1.9-4.5-3.3-6.6C187.8,20.9,199.1,10.1,221.3,10.4L221.3,10.4L221.3,10.4z M300.9,73.2
			c-0.3,6.1-2.7,11.9-6.8,16.4c-4.5-30.1-24.7-43-29-45.3c-0.8-2-2-3.9-3.4-5.5c-0.5-0.5-1-1.1-1.5-1.6c9.5,0.6,20.5,3,28.4,10
			C296.8,54.4,301.3,63.9,300.9,73.2L300.9,73.2L300.9,73.2z M313.5,118c-0.1,10.7-6.7,20.9-16.6,26.1c-4.9-0.8-9.8-1.4-14.8-1.7
			c6.8-7.6,12.7-19.8,12.9-39.4c0-0.8-0.1-1.5-0.1-2.3c2.8-2.2,5.2-4.7,7.4-7.5C306.6,97.4,313.7,106.1,313.5,118L313.5,118
			L313.5,118z M346.9,173.8c6.3,4.3,12.3,9.2,17.8,14.6l-26.5,0.8L346.9,173.8L346.9,173.8L346.9,173.8z M328.1,163.1
			c4,1.9,7.8,3.9,11.3,6l-11.6,20.5l-18.9,0.6L328.1,163.1L328.1,163.1L328.1,163.1z M302.5,154.2c5.9,1.4,11.7,3.2,17.4,5.4
			l-22,30.9l-25.8,0.8L302.5,154.2L302.5,154.2z M206.5,108.4c7.9,0.1,15.6-1.6,22.8-5c22-10.3,35.6-34,37.3-47.7
			c7.8,6.5,20.2,21,19.8,47.1c-0.2,18.9-6.4,32.6-17.6,39.4l-0.1,0.1c-2.2,0.3-4.4,0.7-6.5,1.2c-0.1,0-0.2,0-0.3,0.1
			c-3.8,0.9-7.6,2.2-11.3,3.7L249,147c-0.1,0-0.2,0-0.2,0s-0.2-0.1-0.3-0.1c-0.4,0-39.7-5.4-60.9-34.3c-2.4-3.3-4.5-6.8-6.3-10.4
			C189.2,106,197.8,108.2,206.5,108.4L206.5,108.4L206.5,108.4z M174.1,65.3c6.7,5.7,17.4,13.1,28.7,13.7c7.3,0.4,14.3-2.3,19.5-7.3
			c15.1-14,19.6-26.4,20.9-32.9c3.6,0.7,8.8,2.2,11.9,5.8c2.2,2.5,3.1,5.8,2.7,9.9c-1,9.8-12.6,31.9-32.4,41.2
			c-15.2,7.2-31.6,5.1-48.8-6C174.7,81.6,173.8,73.5,174.1,65.3L174.1,65.3L174.1,65.3z M193.1,39.2c2-3.2,7-8.9,16.9-8.8
			c6.8,0.1,10.1,5.5,11.8,11c-6,3.1-11.7,4.3-16.9,3.5C200.4,44.2,196.4,42.2,193.1,39.2L193.1,39.2L193.1,39.2z M178.6,42.6
			c1.1-0.9,2.3-1.7,3.5-2.4c3.4,4.4,10.5,11.6,21.3,13.3c1.5,0.2,2.9,0.4,4.4,0.4c7.6,0.1,15.6-2.7,23.9-8.2
			c-2.6,5.3-7.2,12.1-15.2,19.5c-3.5,3.4-8.2,5.3-13.1,5c-12.1-0.6-24.4-12.1-28.3-16.1c0.3-2.2,0.6-4.5,1-6.8
			C176.4,45.6,177.3,44,178.6,42.6L178.6,42.6L178.6,42.6z M246.8,192.2l19.5-40.5c2.7-0.5,5.4-0.8,8.1-0.8
			c6.1,0.1,12.3,0.6,18.3,1.5l-32.2,39.4L246.8,192.2L246.8,192.2L246.8,192.2z M378.4,194c0.2-0.5,0.3-1,0.3-1.5l0,0
			c0-0.1,0-0.2-0.1-0.2c0-0.4-0.1-0.9-0.3-1.3c-0.1-0.2-0.2-0.3-0.3-0.5c-0.1-0.2-0.2-0.3-0.3-0.5c-1.2-1.6-24.4-31.6-69-43.3
			c8.4-7.1,13.4-17.5,13.7-28.5c0.2-16.8-10.3-28.1-15.4-32.6c1.6-3.8,2.6-7.9,2.8-12c0.6-11.9-5-24-15.3-33
			c-7.4-6.5-16.7-9.8-25.5-11.2c0-0.1,0-0.2-0.1-0.3c-0.6-1.1-14-27-47.3-27.4c-24.4-0.3-37.8,11.1-43.4,17.7
			c-3.4-2.7-7.4-4.6-11.7-5.4c-11.7-2.2-24.3,3.2-33.6,14.3C118.7,45,119.2,64,120,71.4c-12.4,7.7-24.1,20.5-24.3,41.5
			c-0.2,13.7,3.9,26.6,12.2,38.4C77,163.6,56.6,191.5,55.5,193c-0.1,0.2-0.3,0.4-0.4,0.7c0,0.1-0.1,0.1-0.1,0.2
			c-0.2,0.5-0.3,1-0.3,1.5c0,0.1,0,0.1,0,0.2s0,0.1,0,0.2c0,0.5,0.1,1,0.3,1.5v0l0,0c0.6,1.6,10.4,25.4,38.7,39.8
			c-17.1,4.7-62.5,8.6-88,8.2c-2.4,0-4.4,1.9-4.4,4.3c0,2.4,1.9,4.4,4.3,4.4c32.9,0.4,82-6,102.5-12c14.9-4.4,27.8-8.1,41.1-8
			c27.6,0.4,41.3,14.7,41.5,14.9l9.1,9.3c1.7,1.7,4.5,1.8,6.2,0.1s1.8-4.5,0.1-6.2l0,0l-2.1-2.1l0.5-35.4l0.4-31.8
			c-0.1-1.2,0.9-2.2,2-2.3c1.2-0.1,2.2,0.9,2.3,2c0,0.1,0,0.2,0,0.3l-0.4,31.8l-0.4,32.1c0,2.4,1.9,4.4,4.3,4.4
			c2.4,0,4.4-1.9,4.4-4.3l0.2-18c3.4,3.7,7.4,7,11.7,9.7c2.1,1.3,4.8,0.7,6-1.4c1.3-2.1,0.7-4.8-1.4-6c-10.8-6.7-15.1-15-16.1-17.3
			l0.2-12.1l19.8-0.6l9.2,30.5c0.6,1.8,2.2,3.1,4.1,3.1c2.4,0,4.4-1.9,4.4-4.3c0-0.5-0.1-0.9-0.2-1.3l-8.5-28.2l13.6-0.4l15.4,28.4
			c1.2,2.1,3.8,2.9,5.9,1.8c2.1-1.2,2.9-3.8,1.8-5.9l-13.3-24.5l27.9-0.9l19.2,32.3c-1.1,0.5-2.2,1-3.4,1.5c-2.2,1.1-3,3.7-2,5.9
			c1,1.9,3.2,2.9,5.2,2.2c2.9-1.2,5.7-2.4,8.4-3.7c0.1,0,0.1,0,0.2-0.1l0,0c32.6-15.8,51.3-41.1,52.2-42.2c0.1-0.2,0.3-0.5,0.4-0.7
			c0.1-0.1,0.2-0.3,0.2-0.4l0,0L378.4,194z"/>
		<path id="_Path_19" class="st2" d="M101.3,359.9C76,326.4,5.5,333.9,3.6,334.3c-2.4,0.4-4,2.7-3.6,5.1c0.4,2.4,2.7,4,5.1,3.6
			c0,0,0.1,0,0.1,0c0.4-0.1,67-7,89.1,22.2c2,2.6,4.1,5,6.5,7.2c1.8,1.7,4.5,1.6,6.2-0.2c1.7-1.8,1.6-4.5-0.2-6.2l0,0
			C104.8,364.1,102.9,362,101.3,359.9L101.3,359.9L101.3,359.9z"/>
		<path id="_Path_20" class="st2" d="M287.2,335.6l-1.2-1.2l-56.7-58.2c-1.7-1.7-4.5-1.6-6.2,0.1c-1.6,1.7-1.6,4.3-0.1,6
			c23.2,23.9,53.9,55.3,56.7,58.2l1.2,1.2c4.4,4.5,16.3,16.3,16.2,25.1c0,2.1-0.9,4.1-2.4,5.5c-2,2.1-4.8,3.3-7.7,3.3
			c-6-0.2-11.6-5.4-12.9-6.6c-2.5-2.7-5-5-7-6.8c-0.9-0.8-1.6-1.4-2-1.9l-18.7-19.2l-6.3,6.1l18.7,19.2c0.5,0.5,1.4,1.3,2.4,2.2
			c4,3.7,13.5,12.2,13.6,18.6c0,1.6-0.7,3.2-1.9,4.2c-2,2-4.1,2.9-6.3,2.8c-4.5-0.3-9-4.7-10.4-6.3l0,0c-1.3-1.7-2.7-3.4-4.2-4.9
			l-22.5-23.1l-6.3,6.1l22.5,23.1c3.7,3.8,5.9,7.2,6.6,10.1s-0.2,5.4-2.8,8c-4.4,4.3-10.8,1.1-12.9-0.2c-1-1.8-2.3-3.5-3.8-5
			c-5.2-5.4-18.6-20.8-18.7-21c-1.6-1.8-4.3-2-6.2-0.4s-2,4.3-0.4,6.2l0,0c0.6,0.6,13.7,15.8,19.1,21.4c2.1,2.1,3.6,4.9,4.1,7.8
			c0.5,2.7-0.5,5.5-2.6,7.4c-0.9,0.8-2,1.2-3.2,1.2c-2.9-0.1-9.8-2.2-22.9-16.1c-1.7-1.7-4.5-1.6-6.2,0.1c-1.6,1.6-1.7,4.2-0.2,5.9
			c11.8,12.5,21.4,18.7,29.1,18.9h0.1c3.5,0.1,6.9-1.2,9.4-3.7c3.3-3.1,5.2-7.5,5.3-12c1.5,0.4,3,0.6,4.5,0.6
			c4.3,0.1,8.5-1.5,11.6-4.6c3.3-3,5.3-7.1,5.6-11.5c1.5,0.6,3.1,0.9,4.8,1.1h0.8c4.6,0,9-1.9,12.2-5.3c3-2.7,4.6-6.6,4.6-10.7
			c0-1.1-0.2-2.2-0.4-3.3c1.2,0.2,2.3,0.4,3.5,0.4h0.3c5.2,0,10.2-2.1,13.8-5.8c3.3-3,5.1-7.3,5.1-11.8
			C306.1,354.5,292.9,341.2,287.2,335.6L287.2,335.6L287.2,335.6z"/>
		<path class="st1" d="M197.5,402.2c-4.9,11.7-20.4,26.6-27.7,26.5c-0.6,0.1-1.3-0.2-1.7-0.7c-3.3-3.9,2.4-14.4,14-25.6
			c5.2-5,10.2-8,13.6-8c1.1,0,2.1,0.4,2.8,1.2C199.1,396.2,199.1,398.6,197.5,402.2L197.5,402.2L197.5,402.2z M142,415.4
			c-5.4-5.6,4.9-20.4,17.4-32.7c1.9-1.8,4.4-4.3,7.1-6.6c0.1-0.1,0.2-0.2,0.4-0.3l0,0c4.5-3.8,9.4-7.2,13.2-7.1
			c1.3,0,2.5,0.6,3.3,1.5c1.5,1.4,2.3,3.5,2.3,5.6c-0.1,8.6-12.2,20.2-17.3,25.2l-1.2,1.2l-2,2c-4.9,4.9-13.2,13.2-19.1,13.1
			C144.5,417.2,143,416.6,142,415.4L142,415.4L142,415.4z M122.1,398.4c-5-5.2,4.7-19.2,16.6-30.7s19.1-14.8,23.4-10.7
			c1.6,1.6,5,4.8-1.6,12.9c-2.4,2.1-4.8,4.4-7.2,6.7c-5.4,5.2-12,12.4-16.5,19.9C133.2,399.4,126.8,403.2,122.1,398.4L122.1,398.4
			L122.1,398.4z M106.3,380c-2.2-2.3,0.4-7.3,2.1-10.2c3.2-4.9,7-9.5,11.3-13.5l1.2-1.1c3.7-3.7,10-9.8,13.8-9.8
			c0.7,0,1.3,0.3,1.8,0.8c0.8,0.7,1.2,1.8,1.1,2.8c0,5.4-6.7,14.3-13.3,20.7l-1.6,1.6c-3.4,3.4-9.9,9.8-14,9.8
			C107.8,381.2,106.9,380.7,106.3,380L106.3,380L106.3,380z M195.7,385.7c-1.4,0-2.7,0.2-4,0.5c1.7-3.2,2.7-6.7,2.8-10.3
			c0.1-4.4-1.6-8.7-4.8-11.8c-2.5-2.6-5.9-4.1-9.5-4.2c-2.4,0-4.8,0.5-7,1.4c-0.1-4.1-2-8.1-5.1-10.8c-6.9-6.5-15-4.5-22-0.3
			c0-0.4,0.1-0.8,0.1-1.2c0.1-3.4-1.3-6.7-3.7-9.1c-2.1-2.1-4.9-3.3-7.8-3.3c-7.4-0.1-14.4,6.8-20,12.3l-1.1,1.1
			c-4.8,4.6-9,9.7-12.6,15.2c-6.8,11.1-4.2,17.4-0.9,20.9c2.2,2.4,5.3,3.7,8.5,3.8c1.5,0,3-0.3,4.4-0.8c-1.6,5.6-1.2,11,3,15.3
			c2.9,3.1,6.9,4.9,11.2,5c1.7,0,3.3-0.2,4.9-0.7c-0.7,4.7,0.2,9.1,3.8,12.7c2.6,2.8,6.3,4.5,10.1,4.5l0,0c4.4,0.1,8.8-1.9,12.9-4.7
			c-1,4.4-0.5,8.7,2.6,12.3c2.1,2.4,5.1,3.8,8.3,3.8l0,0c12.9,0.2,30.7-19.2,35.9-31.9c3.7-8.9,1.5-13.8-1.1-16.2
			C202.2,387.1,199,385.7,195.7,385.7L195.7,385.7L195.7,385.7z"/>
		<path id="_Path_21" class="st1" d="M171.9,301.1c0.2-19.1,30.6-40.5,45.1-50.8c3.2-2.2,5.6-4,7.3-5.3c10-8.1,30.9-12.7,55.9-12.3
			c19.3,0.3,35.1,9.3,44.9,16.9c12.4,9.5,92,19.4,96.4,19.4c2.4,0,4.4-1.9,4.4-4.3s-1.9-4.4-4.3-4.4h-0.4
			c-15.7-0.2-83.2-11.8-90.7-17.6c-10.9-8.4-28.5-18.5-50.2-18.8c-27.4-0.4-49.8,4.8-61.5,14.3c-1.5,1.2-4,2.9-6.9,5
			c-16.9,11.9-48.3,34.1-48.8,57.6c-0.2,2.5-1.9,23.9,7.6,34.6c3.5,4,8.6,6.3,13.9,6.2c4.9,0.1,8.9-1.4,11.9-4.5
			c6.4-6.5,6-18.3,5.6-27.7c-0.1-3.7-0.3-8.7,0.2-9.8c5.2-6.5,16.4-16.1,23.9-16c2.4,0,4.4-1.9,4.4-4.3c0-2.4-1.9-4.4-4.3-4.4
			c-12.6-0.2-26.5,13.8-30.9,19.3c-2.5,3.2-2.4,8.4-2.1,15.6c0.3,7.4,0.6,17.4-3.1,21.3c-0.8,0.8-2.2,1.9-5.5,1.8
			c-2.9,0.1-5.6-1.1-7.5-3.3c-6.1-6.8-6-22.6-5.4-28.1C171.8,301.4,171.8,301.3,171.9,301.1L171.9,301.1L171.9,301.1z"/>
	</g>
</g>
</svg>
